<svg xmlns="http://www.w3.org/2000/svg" xmlns:xlink="http://www.w3.org/1999/xlink" width="353.021" height="368.537" viewBox="0 0 353.021 368.537">
  <defs>
    <linearGradient id="linear-gradient" x1="0.5" x2="0.5" y2="1" gradientUnits="objectBoundingBox">
      <stop offset="0" stop-color="#ba83ff"/>
      <stop offset="1" stop-color="#d8abff"/>
    </linearGradient>
    <linearGradient id="linear-gradient-6" x1="0.5" x2="0.5" y2="1" gradientUnits="objectBoundingBox">
      <stop offset="0" stop-color="#9c74ff"/>
      <stop offset="1" stop-color="#fff6ff"/>
    </linearGradient>
    <linearGradient id="linear-gradient-7" x1="0.133" y1="0.81" x2="0.991" y2="-0.069" xlink:href="#linear-gradient"/>
    <linearGradient id="linear-gradient-8" x1="0.178" y1="0.869" x2="0.769" y2="-0.001" gradientUnits="objectBoundingBox">
      <stop offset="0" stop-color="#e5a84f" stop-opacity="0"/>
      <stop offset="1" stop-color="#e5a84f"/>
    </linearGradient>
    <linearGradient id="linear-gradient-9" x1="0.307" y1="1.045" x2="0.611" y2="0.185" xlink:href="#linear-gradient"/>
    <linearGradient id="linear-gradient-10" x1="0.493" y1="0.896" x2="0.51" y2="-0.006" gradientUnits="objectBoundingBox">
      <stop offset="0" stop-color="#7941c1"/>
      <stop offset="1" stop-color="#d8abff"/>
    </linearGradient>
    <linearGradient id="linear-gradient-11" x1="0.136" y1="1.309" x2="0.736" y2="0.175" gradientUnits="objectBoundingBox">
      <stop offset="0" stop-color="#7d52b4"/>
      <stop offset="1" stop-color="#d8abff"/>
    </linearGradient>
    <linearGradient id="linear-gradient-12" x1="0.181" y1="0.86" x2="1.202" y2="-0.292" gradientUnits="objectBoundingBox">
      <stop offset="0" stop-color="#e5a84f"/>
      <stop offset="1" stop-color="#e5a84f" stop-opacity="0"/>
    </linearGradient>
  </defs>
  <g id="slide_image3" transform="translate(-18.547 -66.5)">
    <g id="Illustration" transform="translate(32.5 92.5)">
      <rect id="Illustration_Enable_location_background" data-name="Illustration / Enable location background" width="83" height="80" fill="none"/>
      <g id="illustration-2" data-name="illustration">
        <g id="accesories">
          <ellipse id="Oval" cx="11.459" cy="11.473" rx="11.459" ry="11.473" transform="translate(60.082 41.55)" fill="#f7f7f7" opacity="0.3"/>
          <ellipse id="Oval-2" data-name="Oval" cx="5.884" cy="5.891" rx="5.884" ry="5.891" transform="translate(0 68.217)" fill="#f7f7f7" opacity="0.7"/>
          <ellipse id="Oval-3" data-name="Oval" cx="4.646" cy="4.651" rx="4.646" ry="4.651" transform="translate(51.41 9.302)" fill="#f7f7f7" opacity="0.7"/>
          <ellipse id="Oval-4" data-name="Oval" cx="4.336" cy="4.341" rx="4.336" ry="4.341" transform="translate(12.388)" fill="#f7f7f7" opacity="0.6"/>
        </g>
        <path id="Page_1" data-name="Page 1" d="M26.495,52.433,20.74,35.147,3.475,29.385a5.832,5.832,0,0,1-3.029-1.82A2.033,2.033,0,0,1,.294,25.24a5.445,5.445,0,0,1,2.777-2.123L50.928.777Q54.159-.638,55.32.524t-.252,4.4L32.653,52.837a5.591,5.591,0,0,1-2.07,2.78,1.951,1.951,0,0,1-2.272-.152A5.842,5.842,0,0,1,26.495,52.433Z" transform="translate(8.882 19.958)" fill="#f7f7f7"/>
        <path id="Oval_2" data-name="Oval 2" stroke-linecap="round" d="M26.191.013C11.1,1.279,0,5.577.005,10.69c0,6.115,15.886,11.08,35.477,11.09s35.469-4.94,35.466-11.055c0-3.734-5.924-7.038-14.994-9.049" fill="none" stroke="#d8d8d8" transform="matrix(0.891, 0.454, -0.454, 0.891, 11.728, 13.643)" stroke-linejoin="round" stroke-miterlimit="10" stroke-width="2" stroke-dasharray="6 6" opacity="0.19"/>
      </g>
    </g>
    <g id="Group_10410" data-name="Group 10410" transform="translate(-59.948 29.964)">
      <g id="Group_10340" data-name="Group 10340" transform="translate(78.495 143)">
        <g id="Group_10296" data-name="Group 10296" transform="translate(0 0)">
          <g id="Group_10295" data-name="Group 10295" style="isolation: isolate">
            <g id="Group_10288" data-name="Group 10288" transform="translate(180.373 16.166)">
              <path id="Path_16002" data-name="Path 16002" d="M321.174,168.326a1.05,1.05,0,0,1,.011,1.989,3.786,3.786,0,0,1-3.433,0,1.05,1.05,0,0,1-.007-1.986A3.774,3.774,0,0,1,321.174,168.326Z" transform="translate(-317.04 -167.915)" fill="#4a1d51"/>
            </g>
            <g id="Group_10289" data-name="Group 10289" transform="translate(203.027 23.676)">
              <path id="Path_16003" data-name="Path 16003" d="M349.447,178.091a.621.621,0,0,1,0,1.175,2.235,2.235,0,0,1-2.023,0,.621.621,0,0,1-.011-1.175A2.24,2.24,0,0,1,349.447,178.091Z" transform="translate(-347 -177.848)" fill="#4a1d51"/>
            </g>
            <g id="Group_10290" data-name="Group 10290" transform="translate(188.928 21.107)">
              <path id="Path_16004" data-name="Path 16004" d="M349.606,185.622a.584.584,0,0,1,.006,1.1,2.109,2.109,0,0,1-1.908,0l-18.955-10.943a.585.585,0,0,1-.006-1.105,2.1,2.1,0,0,1,1.908,0Z" transform="translate(-328.353 -174.45)" fill="#4a1d51"/>
            </g>
            <g id="Group_10291" data-name="Group 10291" transform="translate(0.029)">
              <path id="Path_16005" data-name="Path 16005" d="M319.652,183.984c7.885,4.553,7.927,11.933.093,16.485L171.884,286.4c-7.834,4.553-20.575,4.553-28.46,0L84.475,252.364c-7.885-4.553-7.927-11.933-.093-16.485L232.244,149.95c7.834-4.552,20.575-4.552,28.46,0Zm-23.446,26.755,12.335-7.168-81.62-47.123-131.26,76.28,81.62,47.123,118.926-69.112M117.579,267.27a16.874,16.874,0,0,0,15.313,0c4.212-2.448,4.19-6.42-.05-8.867a16.876,16.876,0,0,0-15.313,0c-4.217,2.451-4.194,6.423.05,8.873m152.15-99.4a2.1,2.1,0,0,0-1.908,0,.585.585,0,0,0,.006,1.1l18.955,10.944a2.112,2.112,0,0,0,1.908,0,.584.584,0,0,0-.006-1.1L269.73,167.871m-6.718-4.759a3.774,3.774,0,0,0-3.428,0,1.049,1.049,0,0,0,.007,1.985,3.784,3.784,0,0,0,3.433,0,1.05,1.05,0,0,0-.011-1.988m20.967,7.344a2.24,2.24,0,0,0-2.033,0,.621.621,0,0,0,.011,1.175,2.235,2.235,0,0,0,2.023,0,.621.621,0,0,0,0-1.175" transform="translate(-78.534 -146.536)" fill="url(#linear-gradient)"/>
            </g>
            <path id="Path_16006" data-name="Path 16006" d="M325.584,207.038c0,.118-.009.237-.015.355-.006.1-.012.2-.022.3s-.021.176-.033.264-.029.2-.048.3-.036.178-.055.266-.045.2-.072.293-.05.178-.078.266-.062.194-.1.291-.064.173-.1.259c-.041.1-.083.2-.129.306-.037.085-.076.169-.118.253-.049.1-.1.2-.156.3-.044.082-.088.163-.136.243-.07.119-.144.239-.221.357-.046.072-.091.144-.14.216-.09.131-.186.261-.285.39-.042.056-.082.113-.126.169-.163.2-.337.408-.522.609-.048.052-.1.1-.147.154-.146.152-.3.3-.456.453-.073.068-.144.137-.219.2-.095.085-.192.169-.291.254s-.182.154-.277.23-.209.166-.315.247-.2.15-.3.225-.225.16-.34.239-.212.146-.321.217-.243.155-.366.232c-.154.1-.305.191-.466.284L171.874,301.151c-.436.253-.893.488-1.358.713-.122.059-.246.117-.37.175-.42.194-.848.378-1.287.55-.058.023-.114.048-.172.07-.471.179-.956.341-1.446.5-.339.107-.687.2-1.034.295-.264.073-.526.149-.793.214-.365.088-.739.162-1.111.237-.271.055-.539.117-.814.165-.113.02-.227.036-.34.054q-.692.113-1.394.2c-.136.016-.271.034-.408.048-.269.029-.541.045-.811.068-.451.038-.9.07-1.358.09-.29.013-.581.019-.873.024-.367.007-.736.011-1.1.005-.307,0-.613-.013-.919-.025q-.512-.02-1.022-.055c-.311-.021-.62-.048-.929-.077q-.5-.049-1.006-.113-.451-.058-.9-.127c-.358-.056-.715-.119-1.068-.186-.279-.053-.557-.108-.833-.169-.422-.092-.837-.2-1.25-.306-.268-.071-.538-.137-.8-.215-.143-.042-.283-.088-.424-.132q-.622-.2-1.224-.418c-.116-.043-.234-.083-.349-.128-.366-.141-.718-.3-1.071-.455-.172-.076-.349-.145-.518-.225-.507-.241-1-.5-1.476-.771L84.465,267.118c-3.967-2.291-5.949-5.3-5.941-8.3L78.495,269.1c-.008,3,1.974,6.009,5.942,8.3l58.948,34.034c.475.274.969.529,1.476.771.17.081.349.15.522.228.3.133.6.271.906.394.053.021.108.039.162.059.116.045.234.085.351.129q.6.222,1.221.417c.141.045.283.09.426.133.1.028.188.06.284.088.169.048.346.082.516.127.413.109.827.213,1.25.306.113.024.22.058.333.082.166.034.336.055.5.087.353.067.707.13,1.065.185.144.023.284.054.429.075s.315.033.473.053q.5.063,1,.112c.16.016.318.041.479.054s.3.014.451.024c.34.023.679.041,1.019.054.172.007.341.023.513.027.136,0,.273,0,.41,0,.368,0,.735,0,1.1-.005.183,0,.366,0,.548,0,.109,0,.216-.017.324-.022.454-.02.907-.053,1.359-.091.182-.015.367-.018.549-.036.088-.009.175-.022.262-.031.136-.015.271-.033.407-.049q.7-.084,1.4-.2c.113-.018.226-.034.339-.054.054-.01.11-.017.164-.026.219-.039.431-.095.648-.138.373-.076.746-.149,1.112-.238.268-.064.527-.141.79-.212.349-.095.7-.189,1.037-.3.073-.023.149-.04.222-.064.415-.135.822-.28,1.223-.432.058-.022.114-.048.172-.07.44-.172.868-.356,1.288-.55.124-.057.246-.115.369-.174.465-.225.922-.46,1.358-.713L319.706,225.5l.246-.145c.076-.046.146-.094.22-.14.124-.076.247-.153.365-.231s.216-.144.322-.218.229-.159.34-.239.2-.149.3-.224.212-.164.315-.246.188-.155.278-.233.2-.166.289-.251c.039-.036.082-.07.12-.105s.066-.067.1-.1q.237-.223.455-.453c.049-.051.1-.1.148-.154q.277-.3.522-.609l.022-.026c.038-.048.07-.1.106-.144.1-.129.194-.258.283-.388.049-.072.094-.144.141-.215.076-.119.151-.237.221-.358.019-.033.042-.064.06-.1.028-.048.05-.1.076-.147.054-.1.107-.2.156-.3.042-.085.081-.169.12-.255.045-.1.088-.2.128-.3.018-.045.041-.091.057-.136s.026-.082.041-.123c.035-.1.067-.194.1-.292s.054-.177.078-.265.049-.2.071-.294c.012-.053.028-.105.039-.159.008-.035.011-.071.017-.107.018-.1.033-.2.047-.3s.025-.175.033-.264.017-.2.022-.3c0-.06.011-.119.013-.178s0-.118,0-.177h0Z" transform="translate(-78.495 -161.29)" fill="url(#linear-gradient)"/>
            <path id="Path_16007" data-name="Path 16007" d="M232.446,159.644l-131.261,76.28,81.62,47.123L301.73,213.936l12.335-7.168Z" transform="translate(-84.028 -149.733)" fill="#dcb7af"/>
            <path id="Path_16008" data-name="Path 16008" d="M321.076,206.767l-12.335,7.168-178.808,9.356,109.523-63.648Z" transform="translate(-91.039 -149.733)" fill="#dcb7af" opacity="0.7" style="mix-blend-mode: screen;isolation: isolate"/>
            <g id="Group_10294" data-name="Group 10294" transform="translate(35.877 110.026)">
              <g id="Group_10292" data-name="Group 10292">
                <path id="Path_16009" data-name="Path 16009" d="M144.4,293.885c4.24,2.448,4.262,6.42.05,8.867a16.874,16.874,0,0,1-15.313,0c-4.244-2.45-4.267-6.422-.05-8.873A16.876,16.876,0,0,1,144.4,293.885Z" transform="translate(-125.943 -292.047)" stroke="#56225e" stroke-miterlimit="10" stroke-width="2" fill="url(#linear-gradient)"/>
              </g>
              <g id="Group_10293" data-name="Group 10293" transform="translate(0.917 0.53)">
                <path id="Path_16010" data-name="Path 16010" d="M144.06,294.427c3.877,2.239,3.9,5.885.045,8.124a15.475,15.475,0,0,1-14.025,0c-3.882-2.241-3.9-5.882-.045-8.123A15.475,15.475,0,0,1,144.06,294.427Z" transform="translate(-127.156 -292.748)" fill="url(#linear-gradient)"/>
              </g>
            </g>
          </g>
        </g>
        <g id="Group_10339" data-name="Group 10339" transform="translate(17.925 9.911)">
          <g id="Group_10337" data-name="Group 10337" transform="translate(15.851)" style="isolation: isolate">
            <g id="Group_10297" data-name="Group 10297" transform="translate(133.398 11.111)">
              <path id="Path_16011" data-name="Path 16011" d="M316.844,184.273l-17.26,10.1.175-20.037Z" transform="translate(-299.584 -174.339)" fill="#9ae5ad"/>
            </g>
            <g id="Group_10298" data-name="Group 10298" transform="translate(78.737 14.386)">
              <path id="Path_16012" data-name="Path 16012" d="M262.56,186l-22.666,13.266-12.6-7.326L249.96,178.67Z" transform="translate(-227.294 -178.67)" fill="#9ae5ad"/>
            </g>
            <g id="Group_10299" data-name="Group 10299" transform="translate(127.951 8.083)">
              <path id="Path_16013" data-name="Path 16013" d="M318.486,185.273l-26.106,15.279.414-30.218L298,173.362l-.175,20.037,17.26-10.1Z" transform="translate(-292.381 -170.334)" fill="#f0e1d9"/>
            </g>
            <g id="Group_10300" data-name="Group 10300" transform="translate(142.974 36.245)">
              <path id="Path_16014" data-name="Path 16014" d="M332.148,211.843,319.582,219.2l-7.333-4.264,12.566-7.355Z" transform="translate(-312.249 -207.579)" fill="#dcb7af"/>
            </g>
            <g id="Group_10301" data-name="Group 10301" transform="translate(66.001 30.683)">
              <path id="Path_16015" data-name="Path 16015" d="M258.128,209.7l-11.873,6.949L238.7,221.07l-10.649-6.192-17.6-10.232,7.557-4.423,17.6,10.232,11.873-6.949Z" transform="translate(-210.451 -200.223)" fill="#dcb7af"/>
            </g>
            <g id="Group_10302" data-name="Group 10302" transform="translate(54.366)">
              <path id="Path_16016" data-name="Path 16016" d="M261.639,202.048,234.657,217.84l-39.593-23.022,60.1-35.174,7,4.069Zm-19.136,4.7,11.873-6.95-10.649-6.192-11.874,6.95-17.6-10.233L206.7,194.75l17.6,10.232,10.649,6.192,7.558-4.423m-.4-32.721L219.434,187.3l12.6,7.326L254.7,181.357l-12.6-7.326" transform="translate(-195.064 -159.644)" fill="#f0e1d9"/>
            </g>
            <g id="Group_10303" data-name="Group 10303" transform="translate(123.733 38.709)">
              <path id="Path_16017" data-name="Path 16017" d="M352.184,215.535l-31.149,18.231-8.308,4.863-8.079-4.7L286.8,223.553l8.308-4.862,17.846,10.377L344.1,210.837Z" transform="translate(-286.802 -210.837)" fill="#dcb7af"/>
            </g>
            <g id="Group_10304" data-name="Group 10304" transform="translate(4.898 38.044)">
              <path id="Path_16018" data-name="Path 16018" d="M149.754,246.94a10.891,10.891,0,0,0-3.49-1.232l-16.623-9.666,44.567-26.084L213.8,232.978l-43.884,25.685Zm-9.462-10.392,9.342,5.433,18.9,10.992,8.817-5.16-18.9-10.993,17.319-10.136,18.9,10.993,8.817-5.161-18.9-10.992-9.343-5.432-8.817,5.16-17.318,10.136-8.817,5.16m44.8,3.142-8.518-4.953-4.316,2.526,8.518,4.953,4.316-2.526" transform="translate(-129.641 -209.957)" fill="#f0e1d9"/>
            </g>
            <g id="Group_10305" data-name="Group 10305" transform="translate(47.512 62.823)">
              <path id="Path_16019" data-name="Path 16019" d="M198.834,247.681l-4.316,2.526L186,245.255l4.316-2.526Z" transform="translate(-186 -242.728)" fill="#9ae5ad"/>
            </g>
            <g id="Group_10306" data-name="Group 10306" transform="translate(0 64.127)">
              <path id="Path_16020" data-name="Path 16020" d="M123.164,247.32l4.9-2.867,16.623,9.666a13.674,13.674,0,0,0-8.184.955Z" transform="translate(-123.164 -244.453)" fill="#f0f3fe"/>
            </g>
            <g id="Group_10307" data-name="Group 10307" transform="translate(98.894 25.891)">
              <path id="Path_16021" data-name="Path 16021" d="M344.173,211.4l6.378,3.709-60.1,35.174-36.5-21.225,60.1-35.174L336.094,206.7l-31.148,18.231L287.1,214.557l-8.308,4.862L296.638,229.8l8.079,4.7,8.308-4.863Zm-54.619,31.967,8.313-4.865-25.926-15.074-8.312,4.865,25.925,15.074M310.6,204.24l-12.566,7.354,7.333,4.265,12.566-7.355L310.6,204.24" transform="translate(-253.952 -193.885)" fill="#f0e1d9"/>
            </g>
            <g id="Group_10308" data-name="Group 10308" transform="translate(108.571 55.434)">
              <path id="Path_16022" data-name="Path 16022" d="M300.988,248.031l-8.313,4.865L266.75,237.822l8.313-4.865Z" transform="translate(-266.75 -232.956)" fill="#dcb7af"/>
            </g>
            <g id="Group_10312" data-name="Group 10312" transform="translate(15.548 44.179)">
              <path id="Path_16026" data-name="Path 16026" d="M206.924,234.5l-8.816,5.16-18.9-10.992L161.886,238.8l18.9,10.992-8.817,5.16-18.9-10.992-9.342-5.432,8.816-5.16,17.318-10.136,8.817-5.16,9.342,5.432Z" transform="translate(-143.727 -218.071)" fill="#dcb7af"/>
            </g>
            <path id="Path_16042" data-name="Path 16042" d="M285.164,274.205l-8.812,5.157-.029-.017-6.973-4.054,8.812-5.157,6.973,4.054Z" transform="translate(-158.813 -186.588)" fill="#dcb7af"/>
            <path id="Path_16043" data-name="Path 16043" d="M259.266,273.843,276.09,264l10.756,6.254-4.171,2.441-6.973-4.054-8.812,5.157,6.973,4.054-3.842,2.248Z" transform="translate(-156.354 -185.091)" fill="#f0e1d9"/>
            <g id="Group_10330" data-name="Group 10330" transform="translate(58.496 82.817)">
              <path id="Path_16046" data-name="Path 16046" d="M225.092,276.709l-11.6,6.79-12.965-7.539,11.6-6.79Z" transform="translate(-200.525 -269.171)" fill="#dcb7af"/>
            </g>
            <path id="Path_16048" data-name="Path 16048" d="M268.225,246.115l-10.756-6.254-16.824,9.847,10.756,6.254-4.9,2.866L210,237.6,187.84,250.575l-4.934-2.869,43.884-25.685L187.2,199l4.9-2.869,39.593,23.022,26.982-15.792.52-38.335,6.9,4.015-.414,30.218,26.106-15.279,4.935,2.869-60.1,35.174,36.5,21.224Z" transform="translate(-137.733 -160.956)" fill="#f0f3fe"/>
            <g id="Group_10332" data-name="Group 10332" transform="translate(23.742 93.861)">
              <path id="Path_16049" data-name="Path 16049" d="M154.563,289.208l9.282-5.432,4.934,2.869-9.282,5.432Z" transform="translate(-154.563 -283.776)" fill="#f0f3fe"/>
            </g>
            <path id="Path_16050" data-name="Path 16050" d="M189.431,273.983l22.162-12.972,36.5,21.225-6.37,3.729-14.457-8.407-18.345,10.737c.43-1.549-.377-3.2-2.421-4.386Zm19.991-6.8-11.6,6.79,12.966,7.539,11.6-6.79-12.965-7.539" transform="translate(-139.324 -184.363)" fill="#f0e1d9"/>
            <g id="Group_10334" data-name="Group 10334" transform="translate(28.677 96.73)">
              <path id="Path_16052" data-name="Path 16052" d="M187.441,297.5a13.02,13.02,0,0,0,7.524,1.4l-11.833,6.925L161.089,293l9.282-5.432Z" transform="translate(-161.089 -287.57)" fill="#f0e1d9"/>
            </g>
            <g id="Group_10335" data-name="Group 10335" transform="translate(50.72 93.194)">
              <path id="Path_16053" data-name="Path 16053" d="M241.923,291.3l-37.194,21.8-14.487-8.423,11.832-6.925a11.544,11.544,0,0,0,4.665-1.4,4.818,4.818,0,0,0,2.381-2.724l18.345-10.737Z" transform="translate(-190.242 -282.894)" fill="#9ae5ad"/>
            </g>
            <g id="Group_10336" data-name="Group 10336" transform="translate(85.207 68.817)">
              <path id="Path_16054" data-name="Path 16054" d="M256.9,257.771l-8.812,5.157-12.239-7.116,8.812-5.157Z" transform="translate(-235.851 -250.655)" fill="#dcb7af"/>
            </g>
            <path id="Path_16055" data-name="Path 16055" d="M246.029,266.145l-20.81-12.1,16.824-9.847,20.81,12.1Z" transform="translate(-148.051 -180.263)" fill="#dcb7af"/>
            <path id="Path_16056" data-name="Path 16056" d="M262.853,256.3l-16.824,9.847-20.81-12.1,16.824-9.846ZM245.5,261.354l8.811-5.158-12.239-7.116-8.811,5.157,12.239,7.117" transform="translate(-148.051 -180.263)" fill="#f0e1d9"/>
          </g>
          <g id="Group_10338" data-name="Group 10338" transform="translate(0 66.994)">
            <path id="Path_16057" data-name="Path 16057" d="M130.914,263.387l20.162,11.723-9.282,5.433L102.2,257.521l15.851-9.277L131.389,256q-.265.132-.515.277C127.531,258.233,127.549,261.431,130.914,263.387Z" transform="translate(-102.201 -248.244)" fill="#f0e1d9"/>
          </g>
        </g>
      </g>
      <g id="Group_10344" data-name="Group 10344" transform="translate(183.554 225.865)">
        <path id="Path_16058" data-name="Path 16058" d="M378.452,306.385l-47.058,27.246-68.739-39.96V282.953l-39.9-23.1" transform="translate(-218.735 -257.035)" fill="none" stroke="#0e6dff" stroke-linecap="round" stroke-linejoin="round" stroke-width="4"/>
        <g id="Group_10343" data-name="Group 10343" transform="translate(0 0)">
          <g id="Group_10341" data-name="Group 10341">
            <path id="Path_16059" data-name="Path 16059" d="M225.178,256.9c1.778,1.034,1.788,2.712.021,3.746a7.03,7.03,0,0,1-6.42,0c-1.781-1.036-1.79-2.71-.02-3.745A7.026,7.026,0,0,1,225.178,256.9Z" transform="translate(-217.437 -256.126)" fill="#56225e"/>
          </g>
          <g id="Group_10342" data-name="Group 10342" transform="translate(2.156 1.258)">
            <path id="Path_16060" data-name="Path 16060" d="M224.354,258.2a1.042,1.042,0,0,1,.011,1.967,3.691,3.691,0,0,1-3.372,0,1.042,1.042,0,0,1-.011-1.967A3.7,3.7,0,0,1,224.354,258.2Z" transform="translate(-220.288 -257.789)" fill="#f0f3fe"/>
          </g>
        </g>
      </g>
      <g id="Group_10348" data-name="Group 10348" transform="translate(170.663 165.064)">
        <g id="Group_10347" data-name="Group 10347" transform="translate(0 0)" style="isolation: isolate">
          <path id="Path_16061" data-name="Path 16061" d="M202.461,191.8a32.574,32.574,0,0,1,4.584-7.771,26.814,26.814,0,0,1,7.21-6.376,16.887,16.887,0,0,1,2.109-1.036c3.2-1.292,5.807-1.107,7.744.019l3.689,2.144c-1.937-1.126-4.543-1.311-7.744-.019a16.784,16.784,0,0,0-2.109,1.036,26.816,26.816,0,0,0-7.211,6.376,32.6,32.6,0,0,0-4.584,7.771,24.727,24.727,0,0,0-2.07,9.211,13.6,13.6,0,0,0,.561,4.254,14.664,14.664,0,0,0,1.4,2.8,28.081,28.081,0,0,0,3.4,4.561,34.929,34.929,0,0,1,7.049,11.133.876.876,0,0,0,.369.472l-3.689-2.144a.874.874,0,0,1-.37-.472,34.916,34.916,0,0,0-7.049-11.133,28.031,28.031,0,0,1-3.4-4.561,14.659,14.659,0,0,1-1.4-2.8,13.649,13.649,0,0,1-.561-4.254A24.712,24.712,0,0,1,202.461,191.8Z" transform="translate(-200.388 -175.716)" fill="url(#linear-gradient)"/>
          <g id="Group_10345" data-name="Group 10345" transform="translate(3.69 2.144)">
            <path id="Path_16062" data-name="Path 16062" d="M207.34,194.634a32.6,32.6,0,0,1,4.584-7.771,26.816,26.816,0,0,1,7.211-6.376,16.784,16.784,0,0,1,2.109-1.036c4.387-1.772,7.657-.767,9.62,1.632,1.189,1.46,2.019,3.6,2.088,6.835a24.386,24.386,0,0,1-1.943,9.276c-.558,1.438-1.056,2.857-1.635,4.268-1.729,4.214-3.605,8.352-5.22,12.6a101.945,101.945,0,0,0-3.485,10.791,3.464,3.464,0,0,1-1.5,2.091c-.62.358-1.24.314-1.488-.35a34.929,34.929,0,0,0-7.049-11.133,28.081,28.081,0,0,1-3.4-4.561,14.664,14.664,0,0,1-1.4-2.8,13.6,13.6,0,0,1-.561-4.254A24.727,24.727,0,0,1,207.34,194.634Zm11.784,7.283a12.764,12.764,0,0,0,5.8-10.04c-.011-3.687-2.619-5.174-5.835-3.317a12.758,12.758,0,0,0-5.79,10.029c.011,3.695,2.619,5.181,5.828,3.329" transform="translate(-205.268 -178.552)" fill="url(#linear-gradient-6)"/>
          </g>
          <g id="Group_10346" data-name="Group 10346" transform="translate(10.03 8.4)">
            <path id="Path_16063" data-name="Path 16063" d="M221.5,187.909c-4.347,2.51-7.859,8.593-7.845,13.588s3.549,7.021,7.9,4.51,7.868-8.6,7.854-13.6S225.855,185.393,221.5,187.909Z" transform="translate(-213.653 -186.825)" fill="#f0f3fe"/>
          </g>
        </g>
      </g>
      <g id="Group_10400" data-name="Group 10400" transform="translate(191.983 240.036)">
        <g id="Group_10349" data-name="Group 10349" transform="translate(199.207 33.686)">
          <path id="Path_16064" data-name="Path 16064" d="M667.491,197.209a7.2,7.2,0,1,0-6.215-12.854,9.085,9.085,0,1,0-4.513,17.184,10.076,10.076,0,1,0,10.728-4.33Z" transform="translate(-648.093 -178.194)" fill="#f0e1d9"/>
          <circle id="Ellipse_3688" data-name="Ellipse 3688" cx="5.676" cy="5.676" r="5.676" transform="translate(28.974)" fill="#f0e1d9"/>
        </g>
        <g id="Group_10399" data-name="Group 10399">
          <g id="Group_10361" data-name="Group 10361" transform="translate(50.092 60.665)">
            <path id="Path_16065" data-name="Path 16065" d="M454.534,315.69,609.1,226.565l-30.686-14.3-127.522,69.32Z" transform="translate(-450.887 -212.266)" fill="#cd2e36"/>
            <g id="Group_10360" data-name="Group 10360" transform="translate(19.814 5.442)">
              <g id="Group_10354" data-name="Group 10354" transform="translate(0 51.764)">
                <g id="Group_10352" data-name="Group 10352" style="isolation: isolate">
                  <path id="Path_16066" data-name="Path 16066" d="M500.687,288.853c-2.511-1.459-5.988-1.254-9.828.963-7.625,4.4-13.792,15.084-13.767,23.845.012,4.356,1.549,7.419,4.028,8.86l10.031,5.829c-2.479-1.44-4.016-4.5-4.028-8.859-.025-8.761,6.142-19.443,13.766-23.846,3.84-2.217,7.317-2.422,9.828-.963Z" transform="translate(-477.092 -287.921)" fill="#46184a"/>
                  <g id="Group_10350" data-name="Group 10350" transform="translate(4.31 1.095)">
                    <ellipse id="Ellipse_3689" data-name="Ellipse 3689" cx="19.47" cy="11.277" rx="19.47" ry="11.277" transform="matrix(0.502, -0.865, 0.865, 0.502, 0, 33.667)" fill="#6f3281"/>
                  </g>
                  <g id="Group_10351" data-name="Group 10351" transform="translate(13.158 11.288)">
                    <g id="Ellipse_3690" data-name="Ellipse 3690" transform="translate(0 18.415) rotate(-59.837)" fill="#f0f3fe" stroke="#56225e" stroke-miterlimit="10" stroke-width="1">
                      <ellipse cx="10.649" cy="6.168" rx="10.649" ry="6.168" stroke="none"/>
                      <ellipse cx="10.649" cy="6.168" rx="10.149" ry="5.668" fill="none"/>
                    </g>
                  </g>
                </g>
                <g id="Group_10353" data-name="Group 10353" transform="translate(22.236 21.528)">
                  <path id="Path_16067" data-name="Path 16067" d="M508.1,316.612c.888-.513,1.609-.1,1.612.919a3.528,3.528,0,0,1-1.6,2.774c-.887.513-1.609.1-1.612-.919A3.532,3.532,0,0,1,508.1,316.612Z" transform="translate(-506.499 -316.391)" fill="#e5a84f"/>
                </g>
              </g>
              <g id="Group_10359" data-name="Group 10359" transform="translate(89.046)">
                <g id="Group_10357" data-name="Group 10357" style="isolation: isolate">
                  <path id="Path_16068" data-name="Path 16068" d="M618.45,220.395c-2.51-1.459-5.987-1.254-9.828.963-7.624,4.4-13.791,15.084-13.766,23.845.012,4.356,1.549,7.419,4.028,8.86l10.031,5.829c-2.479-1.44-4.016-4.5-4.029-8.859-.024-8.761,6.142-19.443,13.767-23.845,3.84-2.217,7.317-2.423,9.828-.963Z" transform="translate(-594.856 -219.463)" fill="#46184a"/>
                  <g id="Group_10355" data-name="Group 10355" transform="translate(4.309 1.096)">
                    <ellipse id="Ellipse_3691" data-name="Ellipse 3691" cx="19.47" cy="11.277" rx="19.47" ry="11.277" transform="translate(0 33.667) rotate(-59.838)" fill="#6f3281"/>
                  </g>
                  <g id="Group_10356" data-name="Group 10356" transform="translate(16.287 13.877)">
                    <g id="Path_16069" data-name="Path 16069" transform="translate(-616.396 -237.816)" fill="#f0f3fe" stroke-miterlimit="10">
                      <path d="M 620.5851440429688 256.7510070800781 C 619.5067138671875 256.7510070800781 618.5973510742188 256.3299255371094 617.9554443359375 255.5332489013672 C 617.2666625976563 254.6784362792969 616.9003295898438 253.4199523925781 616.89599609375 251.8938751220703 C 616.8896484375 249.6629028320313 617.645751953125 247.1186065673828 619.0250244140625 244.7296600341797 C 620.404541015625 242.3402404785156 622.2340087890625 240.4068756103516 624.1763305664063 239.2857055664063 C 625.2750244140625 238.6512756347656 626.3609008789063 238.3159637451172 627.3167114257813 238.3159637451172 C 629.5838012695313 238.3159637451172 630.9974365234375 240.1771240234375 631.0059204101563 243.1731414794922 C 631.01904296875 247.8008575439453 627.7530517578125 253.4568634033203 623.7255249023438 255.7813110351563 C 622.6270141601563 256.4157104492188 621.5411376953125 256.7510070800781 620.5851440429688 256.7510070800781 Z" stroke="none"/>
                      <path d="M 627.3167114257813 238.8159484863281 C 626.4485473632813 238.8159484863281 625.4491577148438 239.1281127929688 624.4263305664063 239.7187347412109 C 622.5587768554688 240.7966918945313 620.7943725585938 242.6650695800781 619.4580078125 244.9796600341797 C 618.1221923828125 247.2933654785156 617.389892578125 249.7483520507813 617.39599609375 251.8924560546875 C 617.4037475585938 254.6216430664063 618.595947265625 256.2510375976563 620.5851440429688 256.2510375976563 C 621.4534912109375 256.2510375976563 622.452880859375 255.9389038085938 623.4755859375 255.3482513427734 C 625.3452758789063 254.2691955566406 627.1102905273438 252.4012451171875 628.445556640625 250.0885009765625 C 629.7802734375 247.7766723632813 630.5120239257813 245.3212585449219 630.5059204101563 243.174560546875 C 630.4981689453125 240.4453430175781 629.305908203125 238.8159484863281 627.3167114257813 238.8159484863281 M 627.3167114257813 237.8159484863281 C 629.7929077148438 237.8159484863281 631.4962768554688 239.7777709960938 631.5059204101563 243.1717224121094 C 631.51953125 247.9694213867188 628.1509399414063 253.8045349121094 623.9754638671875 256.21435546875 C 622.7578735351563 256.9175720214844 621.6057739257813 257.2510375976563 620.5851440429688 257.2510375976563 C 618.1102294921875 257.2510375976563 616.4056396484375 255.2920989990234 616.39599609375 251.8952941894531 C 616.38232421875 247.1029052734375 619.7554931640625 241.2601928710938 623.9263916015625 238.8526611328125 C 625.1445922851563 238.1492309570313 626.29638671875 237.8159484863281 627.3167114257813 237.8159484863281 Z" stroke="none" fill="#56225e"/>
                    </g>
                  </g>
                </g>
                <g id="Group_10358" data-name="Group 10358" transform="translate(22.235 21.528)">
                  <path id="Path_16070" data-name="Path 16070" d="M625.864,248.155c.888-.513,1.609-.1,1.612.919a3.528,3.528,0,0,1-1.6,2.774c-.887.512-1.609.1-1.612-.919A3.53,3.53,0,0,1,625.864,248.155Z" transform="translate(-624.262 -247.934)" fill="#e5a84f"/>
                </g>
              </g>
            </g>
          </g>
          <g id="Group_10366" data-name="Group 10366" transform="translate(1.453)">
            <path id="Path_16071" data-name="Path 16071" d="M589.55,189.681a4.009,4.009,0,0,1,.8-.177l.072-.007a2.861,2.861,0,0,1,.786.037l.037.008a2.381,2.381,0,0,1,.7.265l-52.281-30.382-.026-.015a2.225,2.225,0,0,0-.241-.118,2.274,2.274,0,0,0-.256-.09c-.058-.017-.119-.029-.18-.042l-.037-.009c-.018,0-.036-.009-.054-.012a2.615,2.615,0,0,0-.293-.034,3.038,3.038,0,0,0-.322,0c-.038,0-.078.008-.116.012l-.072.007c-.058.006-.116.008-.175.018a3.777,3.777,0,0,0-.432.092c-.063.017-.129.046-.194.067s-.115.039-.174.06-.139.043-.211.073a6.123,6.123,0,0,0-.7.346L406.851,235.452c-.656.378-1.3.795-1.941,1.233-.206.141-.408.3-.612.445-.431.312-.86.629-1.282.966-.234.187-.463.381-.693.575-.389.327-.774.661-1.153,1.007-.231.21-.459.422-.686.639-.142.136-.289.262-.429.4s-.288.314-.436.465q-.691.7-1.355,1.443c-.141.158-.293.3-.433.46-.117.135-.226.281-.343.417-.269.317-.532.641-.794.967-.17.212-.349.413-.516.628-.137.177-.265.363-.4.542-.191.255-.38.51-.567.77-.128.177-.263.347-.389.526-.212.3-.413.616-.619.925-.132.2-.266.391-.4.591-.053.082-.111.162-.164.244q-.542.851-1.052,1.723c-.023.039-.043.078-.066.117-.067.116-.13.236-.2.353-.235.413-.471.826-.693,1.245-.1.194-.2.392-.3.587s-.208.408-.31.612c-.088.178-.184.354-.27.533-.23.476-.445.956-.658,1.437-.039.087-.081.172-.118.258-.011.024-.023.048-.033.073q-.394.909-.747,1.827c-.043.112-.079.225-.121.336-.083.222-.16.445-.24.668-.109.305-.227.61-.329.916-.079.238-.143.476-.218.715-.088.28-.175.56-.256.84-.051.173-.111.346-.159.52-.086.311-.15.62-.228.93-.088.348-.178.695-.256,1.043-.026.121-.064.242-.089.363-.053.25-.08.5-.128.746-.1.544-.2,1.086-.279,1.626-.022.15-.058.3-.077.449-.044.34-.067.674-.1,1.011-.024.24-.053.482-.071.721-.057.757-.092,1.508-.09,2.249l0,1.748,52.281,30.382-.005-1.748c0-.741.034-1.493.091-2.25.017-.237.047-.478.07-.716q.072-.729.177-1.465c.077-.538.175-1.079.278-1.621.071-.371.135-.742.218-1.115.077-.346.168-.692.255-1.038.122-.484.246-.969.388-1.453.082-.28.169-.56.256-.84q.256-.817.547-1.629c.079-.223.157-.447.24-.669.281-.749.578-1.5.9-2.236.038-.086.08-.171.118-.257.293-.663.6-1.32.929-1.973q.152-.305.308-.608.477-.927.993-1.834c.067-.117.129-.236.2-.352.41-.707.839-1.4,1.282-2.085.128-.2.262-.392.393-.588q.493-.738,1.01-1.456.279-.387.565-.765c.3-.4.608-.788.919-1.175.261-.324.523-.647.791-.963.255-.3.516-.588.777-.879q.665-.742,1.355-1.443c.287-.291.572-.585.866-.865q.34-.326.686-.639c.379-.346.764-.681,1.152-1.006.231-.194.462-.389.7-.576.421-.336.849-.653,1.279-.963.206-.148.408-.3.616-.447.639-.439,1.285-.854,1.94-1.233L588.471,190.16a5.627,5.627,0,0,1,.907-.419C589.436,189.72,589.494,189.7,589.55,189.681Z" transform="translate(-386.562 -138.636)" fill="url(#linear-gradient-7)"/>
            <path id="Path_16072" data-name="Path 16072" d="M475.92,264.782l-26.27,15.369c-.655.379-1.3.795-1.94,1.233-.207.142-.41.3-.616.448-.43.31-.857.627-1.279.963-.234.187-.464.382-.7.576-.389.326-.773.66-1.152,1.006q-.346.314-.686.639c-.293.281-.579.573-.866.865q-.691.7-1.355,1.443c-.26.291-.522.58-.777.879-.268.316-.53.639-.791.963-.311.387-.619.776-.919,1.175q-.286.379-.565.765-.517.717-1.01,1.456c-.132.2-.265.389-.394.587-.443.684-.873,1.379-1.282,2.085-.068.117-.13.236-.2.353q-.516.907-.993,1.834c-.1.2-.207.4-.308.608-.324.653-.636,1.31-.929,1.973-.038.086-.08.171-.118.257-.322.74-.619,1.487-.9,2.236-.084.222-.16.446-.24.669q-.29.813-.546,1.629c-.088.28-.175.56-.257.84-.141.485-.265.969-.387,1.453-.087.346-.178.693-.255,1.038-.083.373-.147.743-.218,1.115-.1.542-.2,1.084-.278,1.621q-.105.736-.177,1.465c-.023.238-.053.479-.07.716-.057.757-.093,1.509-.091,2.25l.005,1.748L403.39,302l-.005-1.747c0-.741.034-1.493.091-2.25.017-.239.047-.48.07-.721.033-.337.055-.672.1-1.011.02-.149.056-.3.077-.449.078-.54.175-1.082.28-1.626.048-.25.075-.5.128-.746.026-.12.062-.242.089-.363.077-.347.168-.695.256-1.043.078-.31.142-.619.228-.929.048-.174.109-.347.159-.521.082-.281.169-.56.257-.84.074-.237.138-.476.218-.714.1-.306.219-.611.329-.917.079-.223.156-.445.24-.668.042-.111.078-.225.121-.336q.353-.918.747-1.828l.033-.072c.038-.087.08-.172.119-.258.212-.481.428-.962.658-1.437.086-.179.181-.355.27-.532q.152-.307.31-.612c.1-.2.194-.393.3-.587.223-.419.459-.832.693-1.245.067-.117.129-.237.2-.354.023-.039.043-.079.065-.117q.509-.872,1.053-1.722c.053-.083.11-.163.164-.245.129-.2.264-.393.4-.591.206-.308.407-.622.619-.925.126-.179.26-.349.388-.526q.281-.389.568-.769c.135-.179.262-.365.4-.542.166-.216.345-.416.515-.628.262-.327.525-.65.795-.968.116-.136.225-.282.343-.417.139-.16.291-.3.433-.461q.665-.742,1.355-1.443c.147-.15.286-.317.436-.464s.288-.265.43-.4c.227-.217.455-.429.685-.639.38-.347.764-.681,1.153-1.008.231-.194.46-.388.694-.574.423-.337.851-.654,1.282-.966.2-.147.407-.3.613-.445.639-.439,1.285-.854,1.941-1.233l26.25-15.359Z" transform="translate(-390.664 -160.742)" fill="url(#linear-gradient-8)" style="mix-blend-mode: screen;isolation: isolate"/>
            <path id="Path_16073" data-name="Path 16073" d="M586.331,162.5l-52.689-30.467-70.834,40.9L515.5,203.4Z" transform="translate(-405.155 -132.036)" fill="url(#linear-gradient-9)"/>
            <path id="Path_16074" data-name="Path 16074" d="M459.13,186.122l-11.4,40.57,52.689,30.467,11.4-40.57Z" transform="translate(-401.477 -145.226)" fill="url(#linear-gradient-10)"/>
            <path id="Path_16075" data-name="Path 16075" d="M610.269,216.826l-.058-20.711c-.009-3.057-2.175-4.29-4.879-2.728L584.6,205.517V172.329l-70.834,40.9-11.378,40.391L475.993,269.06c-11.239,6.489-20.326,22.229-20.29,35.143l.005,1.748,24.458-14.1c.157-9.583,6.871-21.1,15.163-25.889,8.307-4.8,15.061-1.041,15.26,8.346l58.785-33.9c0-.033,0-.062,0-.1-.028-9.66,6.772-21.437,15.178-26.29s15.251-.953,15.278,8.706c0,.041,0,.082,0,.123Z" transform="translate(-403.423 -141.862)" fill="url(#linear-gradient-11)"/>
            <g id="Group_10362" data-name="Group 10362" transform="translate(50.267 48.659)">
              <path id="Path_16076" data-name="Path 16076" d="M453.04,231.519l10.837-35.131,43.805,25.33-10.621,35.256Z" transform="translate(-453.04 -196.388)" fill="#8d96d0"/>
              <path id="Path_16077" data-name="Path 16077" d="M457.31,221.507c.107-.677,51.414.21,51.414.21l-43.806-25.329Z" transform="translate(-454.081 -196.388)" fill="#a7b8ed" opacity="0.5" style="mix-blend-mode: screen;isolation: isolate"/>
            </g>
            <g id="Group_10365" data-name="Group 10365" transform="translate(104.487 39.115)">
              <g id="Group_10363" data-name="Group 10363">
                <path id="Path_16078" data-name="Path 16078" d="M565.009,207.766l-29.821,17.217-10.441,34.044,38.3-22.411Z" transform="translate(-524.747 -189.618)" fill="#8d96d0"/>
                <path id="Path_16079" data-name="Path 16079" d="M581.205,200.236l-1.957,28.827,30.485-17.836V183.766Z" transform="translate(-538.038 -183.766)" fill="#8d96d0"/>
              </g>
              <g id="Group_10364" data-name="Group 10364" transform="translate(3.198)">
                <path id="Path_16080" data-name="Path 16080" d="M536.22,224.983,528.976,248.6l36.21-28.24.855-12.595Z" transform="translate(-528.976 -189.618)" fill="#a7b8ed" opacity="0.5" style="mix-blend-mode: screen;isolation: isolate"/>
                <path id="Path_16081" data-name="Path 16081" d="M581.56,200.236l-.858,12.632,29.385-24.012v-5.089Z" transform="translate(-541.59 -183.766)" fill="#a7b8ed" opacity="0.5" style="mix-blend-mode: screen;isolation: isolate"/>
              </g>
            </g>
            <path id="Path_16082" data-name="Path 16082" d="M577.078,157.153l-70.834,40.9-26.063-15.071,70.834-40.9Z" transform="translate(-409.392 -134.486)" opacity="0.7" fill="url(#linear-gradient-12)" style="mix-blend-mode: screen;isolation: isolate"/>
          </g>
          <g id="Group_10386" data-name="Group 10386" transform="translate(0 62.272)">
            <g id="Group_10372" data-name="Group 10372" transform="translate(199.836)">
              <g id="Group_10371" data-name="Group 10371" transform="translate(0 0.871)">
                <g id="Group_10370" data-name="Group 10370" style="isolation: isolate">
                  <g id="Group_10367" data-name="Group 10367" transform="translate(1.595 0.927)">
                    <path id="Path_16083" data-name="Path 16083" d="M660.858,216.77l.027,12.361-9.823,5.672-.027-12.361Z" transform="translate(-651.035 -216.77)" fill="#d9654c"/>
                  </g>
                  <g id="Group_10368" data-name="Group 10368" transform="translate(0 5.672)">
                    <path id="Path_16084" data-name="Path 16084" d="M650.547,236.332l-1.595-.927-.027-12.361,1.595.927Z" transform="translate(-648.926 -223.045)" fill="#cd2e36"/>
                  </g>
                  <g id="Group_10369" data-name="Group 10369">
                    <path id="Path_16085" data-name="Path 16085" d="M650.52,222.142l-1.595-.927,9.824-5.672,1.595.927Z" transform="translate(-648.926 -215.544)" fill="#cd2e36"/>
                  </g>
                </g>
              </g>
              <path id="Path_16086" data-name="Path 16086" d="M661.469,215.263l-1.39-.871v1.674Z" transform="translate(-651.646 -214.392)" fill="#cd2e36"/>
            </g>
            <g id="Group_10385" data-name="Group 10385" transform="translate(0 55.815)">
              <g id="Group_10377" data-name="Group 10377">
                <g id="Group_10376" data-name="Group 10376">
                  <g id="Group_10375" data-name="Group 10375" style="isolation: isolate">
                    <g id="Group_10373" data-name="Group 10373" transform="translate(0 2.505)">
                      <path id="Path_16087" data-name="Path 16087" d="M386.262,304.808l-1.595-.927-.027-12.361,1.595.927Z" transform="translate(-384.64 -291.52)" fill="#abc2ca"/>
                    </g>
                    <g id="Group_10374" data-name="Group 10374">
                      <path id="Path_16088" data-name="Path 16088" d="M386.235,291.639l-1.595-.927,4.383-2.5-.866,2.333Z" transform="translate(-384.64 -288.207)" fill="#cd2e36"/>
                    </g>
                  </g>
                </g>
              </g>
              <g id="Group_10384" data-name="Group 10384" transform="translate(0 1.624)">
                <g id="Group_10383" data-name="Group 10383" transform="translate(53.733 20.533)">
                  <g id="Group_10382" data-name="Group 10382">
                    <g id="Group_10381" data-name="Group 10381" style="isolation: isolate">
                      <g id="Group_10378" data-name="Group 10378" transform="translate(1.595 0.927)">
                        <path id="Path_16089" data-name="Path 16089" d="M478.056,318.737l.027,12.361-20.243,11.5-.027-12.361Z" transform="translate(-457.812 -318.737)" fill="url(#linear-gradient)"/>
                      </g>
                      <g id="Group_10379" data-name="Group 10379" transform="translate(0 11.504)">
                        <path id="Path_16090" data-name="Path 16090" d="M457.325,346.013l-1.595-.927-.027-12.361,1.595.927Z" transform="translate(-455.703 -332.726)" fill="url(#linear-gradient)"/>
                      </g>
                      <g id="Group_10380" data-name="Group 10380">
                        <path id="Path_16091" data-name="Path 16091" d="M457.3,329.942l-1.595-.927,20.243-11.5,1.595.927Z" transform="translate(-455.703 -317.511)" fill="url(#linear-gradient)"/>
                      </g>
                    </g>
                  </g>
                </g>
                <path id="Path_16092" data-name="Path 16092" d="M384.64,303.86l55.328,32.105V323.626L384.64,291.52Z" transform="translate(-384.64 -290.64)" fill="url(#linear-gradient)"/>
                <path id="Path_16093" data-name="Path 16093" d="M386.185,290.356l55.31,32.095-1.526.891L384.64,291.236Z" transform="translate(-384.64 -290.356)" fill="#cd2e36"/>
              </g>
              <path id="Path_16094" data-name="Path 16094" d="M406.144,315.216l21.5,12.443V318.8l-21.5-12.443Z" transform="translate(-389.884 -292.634)" fill="#0e6dff"/>
            </g>
          </g>
          <g id="Group_10398" data-name="Group 10398" transform="translate(11.946 72.387)">
            <g id="Group_10396" data-name="Group 10396" transform="translate(0 39.348)">
              <g id="Group_10394" data-name="Group 10394" transform="translate(32.119 18.726)">
                <path id="Path_16103" data-name="Path 16103" d="M447.293,305.17a9.568,9.568,0,0,1,4.339,7.527c-.008,2.763-1.964,3.878-4.367,2.489a9.581,9.581,0,0,1-4.349-7.521C442.924,304.891,444.888,303.783,447.293,305.17Z" transform="translate(-442.916 -304.573)" fill="#f0f3fe"/>
              </g>
              <g id="Group_10395" data-name="Group 10395">
                <path id="Path_16104" data-name="Path 16104" d="M404.816,280.405a9.565,9.565,0,0,1,4.339,7.527c-.008,2.763-1.963,3.877-4.367,2.489a9.586,9.586,0,0,1-4.349-7.522C400.447,280.126,402.411,279.017,404.816,280.405Z" transform="translate(-400.439 -279.807)" fill="#f0f3fe"/>
              </g>
            </g>
            <g id="Group_10397" data-name="Group 10397" transform="translate(126.905)">
              <line id="Line_230" data-name="Line 230" y1="2.781" x2="4.752" transform="translate(0 18.314)" fill="none" stroke="#d9654c" stroke-linecap="round" stroke-linejoin="round" stroke-width="2"/>
              <line id="Line_231" data-name="Line 231" y1="2.781" x2="4.752" transform="translate(31.301)" fill="none" stroke="#d9654c" stroke-linecap="round" stroke-linejoin="round" stroke-width="2"/>
            </g>
          </g>
        </g>
      </g>
    </g>
    <g id="Illustration-3" data-name="Illustration" transform="translate(250.5 66.5)" opacity="0.24">
      <rect id="Illustration_Bell_background" data-name="Illustration / Bell background" width="109" height="104" fill="none"/>
      <g id="illustration-4" data-name="illustration">
        <g id="accesories-2" data-name="accesories">
          <ellipse id="Oval-5" data-name="Oval" cx="15.049" cy="14.915" rx="15.049" ry="14.915" transform="translate(78.903 54.016)" fill="#dcdcdc" opacity="0.3"/>
          <ellipse id="Oval-6" data-name="Oval" cx="7.728" cy="7.659" rx="7.728" ry="7.659" transform="translate(0 88.682)" fill="#dcdcdc" opacity="0.7"/>
          <ellipse id="Oval-7" data-name="Oval" cx="6.101" cy="6.047" rx="6.101" ry="6.047" transform="translate(67.515 12.093)" fill="#dcdcdc" opacity="0.7"/>
          <ellipse id="Oval-8" data-name="Oval" cx="5.694" cy="5.643" rx="5.694" ry="5.643" transform="translate(16.269)" fill="#dcdcdc" opacity="0.6"/>
        </g>
        <path id="Fill_1" data-name="Fill 1" d="M57.7,3.01A22.623,22.623,0,0,0,49.017.155a23.963,23.963,0,0,0-8.752.607,23.716,23.716,0,0,0-7.923,3.747,22.081,22.081,0,0,0-6.051,6.566L17.143,26.491,0,37.482l21.537,11.99a8.073,8.073,0,0,0-.576,1.5,5.893,5.893,0,0,0-.216,1.57,6.577,6.577,0,0,0,2.017,4.853,7,7,0,0,0,8.32,1.106,6.618,6.618,0,0,0,2.413-2.319L55.68,68.527,56.9,48.686l9.148-15.344a21.53,21.53,0,0,0,2.3-16.879A22.512,22.512,0,0,0,64.5,8.827,21.755,21.755,0,0,0,57.7,3.01Z" transform="translate(12.201 23.38)" fill="#dcdcdc"/>
        <path id="Oval_2-2" data-name="Oval 2" stroke="#d8d8d8" d="M34.344-.073C14.563,1.657-.006,7.315-.03,13.976-.059,21.942,20.73,28.325,46.4,28.233s46.509-6.625,46.538-14.592c.018-4.864-7.725-9.138-19.6-11.707" fill="none" transform="matrix(0.891, 0.454, -0.454, 0.891, 15.407, 17.682)" stroke-linecap="round" stroke-linejoin="round" stroke-miterlimit="10" stroke-width="2" stroke-dasharray="6 6"/>
      </g>
    </g>
  </g>
</svg>
