<svg xmlns="http://www.w3.org/2000/svg" width="36.349" height="43.569" viewBox="0 0 36.349 43.569">
  <g id="addphoto" opacity="0.57">
    <path id="Path_12" data-name="Path 12" d="M97.526,20.987a10.153,10.153,0,0,0,7.42-3.074,10.153,10.153,0,0,0,3.074-7.419,10.155,10.155,0,0,0-3.074-7.419,10.491,10.491,0,0,0-14.839,0,10.154,10.154,0,0,0-3.074,7.419,10.153,10.153,0,0,0,3.075,7.42,10.156,10.156,0,0,0,7.419,3.074Zm0,0" transform="translate(-79.626 0)" fill="#c4c4c4"/>
    <path id="Path_13" data-name="Path 13" d="M36.261,259.773a25.922,25.922,0,0,0-.353-2.753,21.7,21.7,0,0,0-.677-2.768,13.668,13.668,0,0,0-1.138-2.581,9.733,9.733,0,0,0-1.716-2.236,7.564,7.564,0,0,0-2.465-1.549,8.518,8.518,0,0,0-3.146-.569,3.194,3.194,0,0,0-1.706.723c-.511.333-1.109.719-1.777,1.145a10.186,10.186,0,0,1-2.3,1.013,8.928,8.928,0,0,1-5.624,0,10.163,10.163,0,0,1-2.3-1.013c-.661-.423-1.259-.808-1.778-1.146a3.19,3.19,0,0,0-1.7-.723,8.507,8.507,0,0,0-3.146.57,7.56,7.56,0,0,0-2.465,1.549,9.742,9.742,0,0,0-1.715,2.236,13.694,13.694,0,0,0-1.138,2.582A21.746,21.746,0,0,0,.44,257.02a25.83,25.83,0,0,0-.353,2.754c-.058.834-.087,1.7-.087,2.573a7.235,7.235,0,0,0,2.149,5.473,7.735,7.735,0,0,0,5.537,2.02H28.664a7.733,7.733,0,0,0,5.536-2.02,7.231,7.231,0,0,0,2.149-5.474c0-.878-.03-1.744-.088-2.574Zm0,0" transform="translate(0 -226.271)" fill="#c4c4c4"/>
  </g>
</svg>
