<svg id="circular_arrow" xmlns="http://www.w3.org/2000/svg" width="28.797" height="28.8" viewBox="0 0 28.797 28.8">
  <path id="Path_3092" data-name="Path 3092" d="M14.4,0A14.4,14.4,0,0,1,28.8,14.4v0A14.4,14.4,0,1,1,0,14.4v0A14.4,14.4,0,0,1,14.4,0Z" fill="#fff"/>
  <path id="Path_11" data-name="Path 11" d="M26.582,16.758v0a.82.82,0,0,0-.252-.592h0l-4.937-4.937,0,0a.822.822,0,1,0-1.105,1.218L24.6,16.758,20.23,21.125h0a.823.823,0,0,0,1.163,1.163h0l4.937-4.937h0a.82.82,0,0,0,.252-.592Z" transform="translate(-8.5 -1.949)" fill="#0e6dff" stroke="#0e6dff" stroke-linejoin="round" stroke-width="1"/>
</svg>
