<svg xmlns="http://www.w3.org/2000/svg" width="44.142" height="55.298" viewBox="0 0 44.142 55.298">
  <g id="coins" transform="translate(-51.644 0)">
    <path id="Path_16215" data-name="Path 16215" d="M79.056,163.3a5.036,5.036,0,0,1,0-7.115l.869-.869a1.334,1.334,0,0,1,1.887,1.887l-.869.869a2.362,2.362,0,1,0,3.341,3.341l16.786-16.786a1.334,1.334,0,0,1,1.887,1.887L86.171,163.3a5.036,5.036,0,0,1-7.115,0Z" transform="translate(-23.139 -128.66)" fill="#365e7d"/>
    <path id="Path_16216" data-name="Path 16216" d="M263.774,144.7a1.363,1.363,0,0,0-1.9.049L257.9,148.73q.114.3.213.606a1.751,1.751,0,0,0,1.068,1.111q.284.1.56.216l4.057-4.057A1.334,1.334,0,0,0,263.774,144.7Z" transform="translate(-183.975 -128.75)" fill="#2b4d66"/>
    <path id="Path_16217" data-name="Path 16217" d="M173.957,5.978c-7.942-7.942-21.2-7.6-27.923-1.169a.173.173,0,0,0,.083.293q5.268,1.155,6.443,6.695c4.077,1.179,6.772,3.681,7.789,7.789,3.978,1.224,6.816,3.581,7.789,7.789a7.927,7.927,0,0,1,6.69,6.451.173.173,0,0,0,.292.081C181.554,27.183,181.9,13.922,173.957,5.978Z" transform="translate(-84.149 0)" fill="#90d8f9"/>
    <path id="Path_16218" data-name="Path 16218" d="M393.506,69.923a9.3,9.3,0,0,1,1.456,3.329.173.173,0,0,0,.292.08c6.433-6.723,6.78-19.984-1.164-27.928q-.638-.638-1.322-1.2C399.155,51.868,398.857,63.364,393.506,69.923Z" transform="translate(-304.281 -39.425)" fill="#75cef9"/>
    <g id="Group_10501" data-name="Group 10501" transform="translate(67.608 3.255)">
      <path id="Path_16219" data-name="Path 16219" d="M215.809,55.058a.834.834,0,0,1-.59-1.425,27.4,27.4,0,0,0,6.814-11.213c1.155-3.934.8-7.2-.964-8.972s-5.038-2.119-8.972-.964A27.4,27.4,0,0,0,200.883,39.3a.835.835,0,0,1-1.18-1.18,29.12,29.12,0,0,1,11.924-7.235c4.6-1.352,8.377-.86,10.622,1.385s2.737,6.017,1.385,10.622A29.12,29.12,0,0,1,216.4,54.814.832.832,0,0,1,215.809,55.058Z" transform="translate(-199.458 -30.135)" fill="#75cef9"/>
    </g>
    <g id="Group_10502" data-name="Group 10502" transform="translate(75.367 3.592)">
      <path id="Path_16220" data-name="Path 16220" d="M272.124,50.083a.834.834,0,0,1-.59-1.425L286.693,33.5a.835.835,0,0,1,1.18,1.18L272.714,49.839A.833.833,0,0,1,272.124,50.083Z" transform="translate(-271.289 -33.255)" fill="#75cef9"/>
    </g>
    <path id="Path_16221" data-name="Path 16221" d="M265.437,475.89H254.716a1.391,1.391,0,0,1-1.391-1.391v-1.591a1.391,1.391,0,0,1,1.391-1.391h10.722a1.391,1.391,0,0,1,1.391,1.391V474.5A1.391,1.391,0,0,1,265.437,475.89Z" transform="translate(-179.899 -420.592)" fill="#eab14d"/>
    <path id="Path_16222" data-name="Path 16222" d="M347.111,471.518h-2.223a1.391,1.391,0,0,1,1.391,1.391V474.5a1.391,1.391,0,0,1-1.391,1.391h2.223A1.391,1.391,0,0,0,348.5,474.5v-1.591A1.391,1.391,0,0,0,347.111,471.518Z" transform="translate(-261.573 -420.592)" fill="#e49542"/>
    <path id="Path_16223" data-name="Path 16223" d="M274.7,394.927H263.975a1.391,1.391,0,0,1-1.391-1.391v-1.591a1.391,1.391,0,0,1,1.391-1.391H274.7a1.391,1.391,0,0,1,1.391,1.391v1.591A1.391,1.391,0,0,1,274.7,394.927Z" transform="translate(-188.158 -348.374)" fill="#eab14d"/>
    <path id="Path_16224" data-name="Path 16224" d="M356.37,390.555h-2.223a1.391,1.391,0,0,1,1.391,1.391v1.591a1.391,1.391,0,0,1-1.391,1.391h2.223a1.391,1.391,0,0,0,1.391-1.391v-1.591A1.391,1.391,0,0,0,356.37,390.555Z" transform="translate(-269.832 -348.374)" fill="#e49542"/>
    <path id="Path_16225" data-name="Path 16225" d="M251.025,313.963H240.3a1.391,1.391,0,0,1-1.391-1.391v-1.591a1.391,1.391,0,0,1,1.391-1.391h10.722a1.391,1.391,0,0,1,1.391,1.391v1.591A1.391,1.391,0,0,1,251.025,313.963Z" transform="translate(-167.043 -276.154)" fill="#eab14d"/>
    <path id="Path_16226" data-name="Path 16226" d="M332.7,309.591h-2.223a1.391,1.391,0,0,1,1.391,1.391v1.591a1.391,1.391,0,0,1-1.391,1.391H332.7a1.391,1.391,0,0,0,1.391-1.391v-1.591A1.391,1.391,0,0,0,332.7,309.591Z" transform="translate(-248.717 -276.154)" fill="#e49542"/>
    <path id="Path_16227" data-name="Path 16227" d="M265.437,435.408H254.716a1.391,1.391,0,0,1-1.391-1.391v-1.591a1.391,1.391,0,0,1,1.391-1.391h10.722a1.391,1.391,0,0,1,1.391,1.391v1.591A1.391,1.391,0,0,1,265.437,435.408Z" transform="translate(-179.899 -384.483)" fill="#f6e266"/>
    <path id="Path_16228" data-name="Path 16228" d="M347.111,431.037h-2.223a1.391,1.391,0,0,1,1.391,1.391v1.591a1.391,1.391,0,0,1-1.391,1.391h2.223a1.391,1.391,0,0,0,1.391-1.391v-1.591A1.391,1.391,0,0,0,347.111,431.037Z" transform="translate(-261.573 -384.483)" fill="#ecbe6b"/>
    <path id="Path_16229" data-name="Path 16229" d="M265.437,354.445H254.716a1.391,1.391,0,0,1-1.391-1.391v-1.591a1.391,1.391,0,0,1,1.391-1.391h10.722a1.391,1.391,0,0,1,1.391,1.391v1.591A1.391,1.391,0,0,1,265.437,354.445Z" transform="translate(-179.899 -312.264)" fill="#f6e266"/>
    <path id="Path_16230" data-name="Path 16230" d="M347.111,350.073h-2.223a1.391,1.391,0,0,1,1.391,1.391v1.591a1.391,1.391,0,0,1-1.391,1.391h2.223a1.391,1.391,0,0,0,1.391-1.391v-1.591A1.391,1.391,0,0,0,347.111,350.073Z" transform="translate(-261.573 -312.264)" fill="#ecbe6b"/>
    <path id="Path_16231" data-name="Path 16231" d="M104.932,475.89H94.211A1.391,1.391,0,0,1,92.82,474.5v-1.591a1.391,1.391,0,0,1,1.391-1.391h10.722a1.391,1.391,0,0,1,1.391,1.391V474.5A1.391,1.391,0,0,1,104.932,475.89Z" transform="translate(-36.729 -420.592)" fill="#eab14d"/>
    <path id="Path_16232" data-name="Path 16232" d="M160.126,471.518H154.7a9.163,9.163,0,0,0,3.187,4.372h2.242a1.391,1.391,0,0,0,1.391-1.391v-1.591A1.391,1.391,0,0,0,160.126,471.518Z" transform="translate(-91.923 -420.592)" fill="#e49542"/>
    <path id="Path_16233" data-name="Path 16233" d="M104.932,394.927H94.211a1.391,1.391,0,0,1-1.391-1.391v-1.591a1.391,1.391,0,0,1,1.391-1.391h10.722a1.391,1.391,0,0,1,1.391,1.391v1.591A1.391,1.391,0,0,1,104.932,394.927Z" transform="translate(-36.729 -348.374)" fill="#eab14d"/>
    <path id="Path_16234" data-name="Path 16234" d="M156.956,390.555H153.1a9.1,9.1,0,0,0-1.954,4.372h5.813a1.391,1.391,0,0,0,1.391-1.391v-1.591a1.391,1.391,0,0,0-1.391-1.391Z" transform="translate(-88.753 -348.374)" fill="#e49542"/>
    <path id="Path_16235" data-name="Path 16235" d="M84.344,313.963H73.623a1.391,1.391,0,0,1-1.391-1.391v-1.591a1.391,1.391,0,0,1,1.391-1.391H84.344a1.391,1.391,0,0,1,1.391,1.391v1.591A1.391,1.391,0,0,1,84.344,313.963Z" transform="translate(-18.364 -276.154)" fill="#eab14d"/>
    <path id="Path_16236" data-name="Path 16236" d="M166.018,309.591H163.8a1.391,1.391,0,0,1,1.391,1.391v1.591a1.391,1.391,0,0,1-1.391,1.391h2.223a1.391,1.391,0,0,0,1.391-1.391v-1.591A1.391,1.391,0,0,0,166.018,309.591Z" transform="translate(-100.038 -276.154)" fill="#e49542"/>
    <path id="Path_16237" data-name="Path 16237" d="M63.756,233H53.035a1.391,1.391,0,0,1-1.391-1.391v-1.591a1.391,1.391,0,0,1,1.391-1.391H63.756a1.391,1.391,0,0,1,1.391,1.391v1.591A1.391,1.391,0,0,1,63.756,233Z" transform="translate(0 -203.935)" fill="#eab14d"/>
    <path id="Path_16238" data-name="Path 16238" d="M145.43,228.628h-2.223a1.391,1.391,0,0,1,1.391,1.391v1.591A1.391,1.391,0,0,1,143.207,233h2.223a1.391,1.391,0,0,0,1.391-1.391v-1.591A1.391,1.391,0,0,0,145.43,228.628Z" transform="translate(-81.674 -203.935)" fill="#e49542"/>
    <path id="Path_16239" data-name="Path 16239" d="M125.52,435.408H114.8a1.391,1.391,0,0,1-1.391-1.391v-1.591a1.391,1.391,0,0,1,1.391-1.391H125.52a1.391,1.391,0,0,1,1.391,1.391v1.591A1.391,1.391,0,0,1,125.52,435.408Z" transform="translate(-55.093 -384.483)" fill="#f6e266"/>
    <path id="Path_16240" data-name="Path 16240" d="M158.281,431.037h-8.037a9.164,9.164,0,0,0,.384,4.372h7.653a1.391,1.391,0,0,0,1.391-1.391v-1.591A1.391,1.391,0,0,0,158.281,431.037Z" transform="translate(-87.854 -384.483)" fill="#ecbe6b"/>
    <path id="Path_16241" data-name="Path 16241" d="M84.344,354.445H73.623a1.391,1.391,0,0,1-1.391-1.391v-1.591a1.391,1.391,0,0,1,1.391-1.391H84.344a1.391,1.391,0,0,1,1.391,1.391v1.591A1.391,1.391,0,0,1,84.344,354.445Z" transform="translate(-18.364 -312.264)" fill="#f6e266"/>
    <path id="Path_16242" data-name="Path 16242" d="M166.018,350.073H163.8a1.391,1.391,0,0,1,1.391,1.391v1.591a1.391,1.391,0,0,1-1.391,1.391h2.223a1.391,1.391,0,0,0,1.391-1.391v-1.591A1.391,1.391,0,0,0,166.018,350.073Z" transform="translate(-100.038 -312.264)" fill="#ecbe6b"/>
    <path id="Path_16243" data-name="Path 16243" d="M84.344,273.481H73.623a1.391,1.391,0,0,1-1.391-1.391V270.5a1.391,1.391,0,0,1,1.391-1.391H84.344a1.391,1.391,0,0,1,1.391,1.391v1.591A1.391,1.391,0,0,1,84.344,273.481Z" transform="translate(-18.364 -240.044)" fill="#f6e266"/>
    <path id="Path_16244" data-name="Path 16244" d="M166.018,269.11H163.8a1.391,1.391,0,0,1,1.391,1.391v1.591a1.391,1.391,0,0,1-1.391,1.391h2.223a1.391,1.391,0,0,0,1.391-1.391V270.5A1.391,1.391,0,0,0,166.018,269.11Z" transform="translate(-100.038 -240.045)" fill="#ecbe6b"/>
    <circle id="Ellipse_3709" data-name="Ellipse 3709" cx="7.333" cy="7.333" r="7.333" transform="translate(64.093 40.633)" fill="#f6e266"/>
    <path id="Path_16245" data-name="Path 16245" d="M222.411,376.216a7.367,7.367,0,0,0-1.5.154,7.334,7.334,0,0,1,0,14.357,7.333,7.333,0,1,0,1.5-14.511Z" transform="translate(-150.986 -335.583)" fill="#ecbe6b"/>
  </g>
</svg>
