<svg xmlns="http://www.w3.org/2000/svg" width="29.505" height="19.851" viewBox="0 0 29.505 19.851">
  <g id="coin" transform="translate(0 -75.673)">
    <g id="Group_10481" data-name="Group 10481" transform="translate(3.428 84.916)">
      <g id="Group_10480" data-name="Group 10480" transform="translate(0 0)">
        <path id="Path_16204" data-name="Path 16204" d="M56.68,220.573a2.934,2.934,0,1,0,2.934,2.934A2.935,2.935,0,0,0,56.68,220.573Z" transform="translate(-53.746 -220.573)" fill="#d0d0d0"/>
      </g>
    </g>
    <g id="Group_10483" data-name="Group 10483" transform="translate(8.959 75.673)">
      <g id="Group_10482" data-name="Group 10482" transform="translate(0 0)">
        <path id="Path_16205" data-name="Path 16205" d="M151.858,76.292a17.876,17.876,0,0,0-4.912-.619,17.278,17.278,0,0,0-4.854.619c-1.218.376-1.646.8-1.646.938.006.006.013.013.013.019.032.14.421.58,1.792.976a17.514,17.514,0,0,0,4.7.574,18.041,18.041,0,0,0,4.905-.619c1.391-.421,1.69-.855,1.69-.944S153.248,76.713,151.858,76.292Z" transform="translate(-140.446 -75.673)" fill="#d0d0d0"/>
      </g>
    </g>
    <g id="Group_10485" data-name="Group 10485" transform="translate(9.042 78.811)">
      <g id="Group_10484" data-name="Group 10484" transform="translate(0 0)">
        <path id="Path_16206" data-name="Path 16206" d="M153.451,125.447a21.024,21.024,0,0,1-10.327.051,7.067,7.067,0,0,1-1.378-.529l.045,1.8a7.324,7.324,0,0,1,1.99,1.129c.013.006.032.006.051.013a18.25,18.25,0,0,0,4.344.478,17.8,17.8,0,0,0,4.905-.619c1.384-.421,1.684-.861,1.684-.944a.646.646,0,0,1,.1-.357v-1.595A6.284,6.284,0,0,1,153.451,125.447Z" transform="translate(-141.746 -124.873)" fill="#d0d0d0"/>
      </g>
    </g>
    <g id="Group_10487" data-name="Group 10487" transform="translate(12.257 90.593)">
      <g id="Group_10486" data-name="Group 10486" transform="translate(0 0)">
        <path id="Path_16207" data-name="Path 16207" d="M195.087,309.879a.656.656,0,0,1,0-.223c-.593-.006-1.167-.038-1.716-.083a7.7,7.7,0,0,1-1.225,2.1,19.4,19.4,0,0,0,2.966.262Z" transform="translate(-192.146 -309.573)" fill="#d0d0d0"/>
      </g>
    </g>
    <g id="Group_10489" data-name="Group 10489" transform="translate(0 81.491)">
      <g id="Group_10488" data-name="Group 10488" transform="translate(0 0)">
        <path id="Path_16208" data-name="Path 16208" d="M12.588,171.951a6.349,6.349,0,0,0-2.092-3.54,6.21,6.21,0,0,0-2.258-1.257,6.5,6.5,0,0,0-1.882-.281,6.358,6.358,0,1,0,6.36,6.36A6.671,6.671,0,0,0,12.588,171.951Zm-6.226,5.486a4.21,4.21,0,1,1,4.21-4.21A4.214,4.214,0,0,1,6.362,177.437Z" transform="translate(0 -166.873)" fill="#d0d0d0"/>
      </g>
    </g>
    <g id="Group_10491" data-name="Group 10491" transform="translate(13.845 87.091)">
      <g id="Group_10490" data-name="Group 10490" transform="translate(0 0)">
        <path id="Path_16209" data-name="Path 16209" d="M218.386,256.976l-.026-2.124a1.022,1.022,0,0,1-.032-.134c-.4-.006-.791-.019-1.167-.045.019.255.032.5.032.753a7.841,7.841,0,0,1-.147,1.493C217.473,256.95,217.926,256.969,218.386,256.976Z" transform="translate(-217.046 -254.673)" fill="#d0d0d0"/>
      </g>
    </g>
    <g id="Group_10493" data-name="Group 10493" transform="translate(16.396 85.343)">
      <g id="Group_10492" data-name="Group 10492" transform="translate(0 0)">
        <path id="Path_16210" data-name="Path 16210" d="M268.42,227.879a17.8,17.8,0,0,0-4.905-.606h-.051a17.667,17.667,0,0,0-4.586.542c-1.244.344-1.722.734-1.831.931a.547.547,0,0,1,.032.172,3.557,3.557,0,0,0,1.869.919,18.228,18.228,0,0,0,4.567.529,17.768,17.768,0,0,0,4.854-.6c1.416-.421,1.729-.861,1.735-.957V228.8C270.085,228.7,269.759,228.287,268.42,227.879Z" transform="translate(-257.046 -227.273)" fill="#d0d0d0"/>
      </g>
    </g>
    <g id="Group_10495" data-name="Group 10495" transform="translate(16.505 92.003)">
      <g id="Group_10494" data-name="Group 10494" transform="translate(0 0)">
        <path id="Path_16211" data-name="Path 16211" d="M270.356,332.254a18.722,18.722,0,0,1-5.25.67,19.524,19.524,0,0,1-4.771-.542,7.882,7.882,0,0,1-1.588-.574l.019,1.442.006.389v.013c0,.14.408.561,1.627.938a17.391,17.391,0,0,0,4.842.606,17.141,17.141,0,0,0,4.861-.625c1.359-.421,1.639-.861,1.639-.95v-1.946A5.71,5.71,0,0,1,270.356,332.254Z" transform="translate(-258.746 -331.673)" fill="#d0d0d0"/>
      </g>
    </g>
    <g id="Group_10497" data-name="Group 10497" transform="translate(16.454 88.482)">
      <g id="Group_10496" data-name="Group 10496" transform="translate(0 0)">
        <path id="Path_16212" data-name="Path 16212" d="M269.562,277.054a19.045,19.045,0,0,1-5.205.651,15.359,15.359,0,0,1-6.411-1.142l.026,2.016c.549.612,2.909,1.384,6.379,1.384a17.617,17.617,0,0,0,4.893-.612c1.371-.421,1.665-.855,1.665-.944,0-.128.083-.242.089-.338v-1.595A6.977,6.977,0,0,1,269.562,277.054Z" transform="translate(-257.946 -276.473)" fill="#d0d0d0"/>
      </g>
    </g>
    <g id="Group_10499" data-name="Group 10499" transform="translate(12.575 82.352)">
      <g id="Group_10498" data-name="Group 10498" transform="translate(0 0)">
        <path id="Path_16213" data-name="Path 16213" d="M205.3,180.96a18.863,18.863,0,0,1-5.269.67,23.055,23.055,0,0,1-2.89-.185,7.682,7.682,0,0,1,1.135,2.373c.549.045,1.135.07,1.754.07h.051a4.973,4.973,0,0,1,2.354-1.225,18.069,18.069,0,0,1,4.287-.587v-1.7A6.753,6.753,0,0,1,205.3,180.96Z" transform="translate(-197.146 -180.373)" fill="#d0d0d0"/>
      </g>
    </g>
  </g>
</svg>
