<svg xmlns="http://www.w3.org/2000/svg" width="43.668" height="46.19" viewBox="0 0 43.668 46.19">
  <g id="dialoguelogo" transform="translate(0 0)">
    <path id="Path_14862" data-name="Path 14862" d="M2990.256,363.156a29.691,29.691,0,0,1,.225,4.634c.005,1,.125,1.688-.2,2.188-.3.462-.125,1.484-.208,2.135-.554.384-2.7.2-3.6.207-1.3.006-1.511.225-1.977-.484-.314-.478-.074-.354-.1-1.053-1.144-.011-.575.057-1.356-.369a9.618,9.618,0,0,0-1.021-.568,55.366,55.366,0,0,0-6.408.026c-1.217.5-.808.9-2.315.911-.017.45.134.658-.029.938-.091.158-.312.505-.48.562l-4.265.035c-1.644-.029-.664-1.2-1.01-2.165-.149-.416-.277-.109-.3-.741-.021-.7,0-1.456,0-2.161a25.572,25.572,0,0,1,.222-4.094,2.578,2.578,0,0,1,.558-1.37c.362-.434.68-.433,1.168-.727-.962-.779-2.744-.83-2.43-2.161a3.433,3.433,0,0,1,2.348.08c1.023.457-.154,1.512.79,1.749a11.2,11.2,0,0,0,1.022-2.415c.583-1.475.513-1.583,1.585-1.828a50.492,50.492,0,0,1,12.8.016c.634.152.771.146,1.035.676.465.935,1.137,3.3,1.5,3.552.957-.246-.275-1.357.854-1.776a3.3,3.3,0,0,1,2.284-.054c.3,1.258-.779,1.08-2.114,1.926l-.315.234c.613.369,1.543.508,1.726,2.1Zm-26.761,5.867c.535,1.622.76,1.115.015,1.82a4.644,4.644,0,0,0-.412.484,1.279,1.279,0,0,0-.024.747c1.1,3.722,28.177,3.711,30.984.509.506-.577.417-.411.452-.754.078-.761-.725-1.039-1-1.437.172-2.225,1.695-3.712,1.474-7.72a16.181,16.181,0,0,0-24.14-13.118,16.856,16.856,0,0,0-7.348,19.469Z" transform="translate(-2957.143 -347.412)" fill="#0e6dff" fill-rule="evenodd"/>
    <path id="Path_14863" data-name="Path 14863" d="M3074.43,762.465c-.776-.553-17.567-.492-18.25,0,.129.4,4.248,6.919,4.547,7.382l3.408,5.476a17.5,17.5,0,0,0,1.172,1.806C3065.882,776.449,3074.356,762.712,3074.43,762.465Z" transform="translate(-3043.6 -730.941)" fill="#0e6dff" fill-rule="evenodd"/>
    <path id="Path_14864" data-name="Path 14864" d="M2888.891,632.335c3.9,6.863,26.491,6.039,33.087,4.668,2.483-.516,6.618-1.649,8.735-3.2,1.317-.964,2.034-2.393,1.26-3.791-.764-1.379-3.858-3.388-5.4-3.309l-.251,1.144c1.074.508,2.607,1.11,2.986,2.395a1.3,1.3,0,0,1-.022.79c-.825,2.017-4.37,2.807-6.389,3.311-6.748,1.684-17.967,1.755-24.125.241-1.775-.437-5.729-1.321-6.951-2.83a2.96,2.96,0,0,1-.514-1.193c.054-1.535,2.041-2.063,3.165-2.753l-.421-1.236c-1.516-.212-6.646,3.141-5.156,5.762Z" transform="translate(-2888.623 -605.605)" fill="#0e6dff" fill-rule="evenodd"/>
    <path id="Path_14865" data-name="Path 14865" d="M3064.6,472.389c2.882.259,5.551.574,8.494.625,1.967.035,6.878-.079,8.5-.663l-1.322-3.514c-.574-1.176-11.425-.97-13.319-.574-.566.118-.823.128-1.041.574a32.184,32.184,0,0,0-1.314,3.552Z" transform="translate(-3051.388 -458.87)" fill="#0e6dff" fill-rule="evenodd"/>
    <path id="Path_14866" data-name="Path 14866" d="M3103.55,576.2c.584.456.507.274,1.3.49.459.125.972.307,1.442.422a16.5,16.5,0,0,0,3.537.189,10.928,10.928,0,0,0,1.645-.176l3.013-.684c.545-.325.089-.9-.043-1.286-1.919.057-3.717.245-5.692.248l-4.975-.224c-.16.446-.263.4-.229,1.02Z" transform="translate(-3087.408 -558.052)" fill="#0e6dff" fill-rule="evenodd"/>
    <path id="Path_14867" data-name="Path 14867" d="M3258.07,559.887c.436,1,.22,1.214,2.4,1.127,2.886-.115,2.556-1.9,1.667-2.245a3.562,3.562,0,0,0-1.616.113A7.17,7.17,0,0,0,3258.07,559.887Z" transform="translate(-3230.333 -542.843)" fill="#0e6dff" fill-rule="evenodd"/>
    <path id="Path_14868" data-name="Path 14868" d="M3039.482,559.781c-.838-.568-3.222-1.443-4.072-1.118a.987.987,0,0,0-.609,1.075c.171.717,1.544,1.176,2.276,1.225a5.741,5.741,0,0,0,1.665-.124C3039.169,560.723,3039.307,560.181,3039.482,559.781Z" transform="translate(-3023.807 -542.738)" fill="#0e6dff" fill-rule="evenodd"/>
  </g>
</svg>
