<svg xmlns="http://www.w3.org/2000/svg" width="55" height="55" viewBox="0 0 55 55">
  <g id="greyparkingicon" transform="translate(-42 -480)">
    <rect id="greyparkingicon-2" data-name="greyparkingicon" width="55" height="55" rx="4" transform="translate(42 480)" fill="#88a2cb"/>
    <g id="Group_10427" data-name="Group 10427" transform="translate(53.653 490.355)">
      <path id="Path_14862" data-name="Path 14862" d="M2982.848,358.923a21.666,21.666,0,0,1,.164,3.388c0,.732.092,1.234-.145,1.6-.219.338-.091,1.085-.152,1.561a7.971,7.971,0,0,1-2.631.151c-.95,0-1.1.164-1.445-.354-.229-.35-.054-.259-.074-.77-.836-.008-.42.042-.991-.27a7,7,0,0,0-.746-.416,40.479,40.479,0,0,0-4.685.019c-.89.364-.591.656-1.693.666-.013.329.1.481-.021.686-.067.115-.228.369-.351.411l-3.118.026c-1.2-.021-.485-.875-.738-1.583-.109-.3-.2-.08-.218-.542-.016-.512,0-1.064,0-1.58a18.715,18.715,0,0,1,.163-2.993,1.883,1.883,0,0,1,.408-1c.265-.317.5-.317.854-.531-.7-.57-2.006-.607-1.776-1.58a2.51,2.51,0,0,1,1.716.059c.748.334-.112,1.106.578,1.279a8.183,8.183,0,0,0,.748-1.766c.426-1.079.375-1.158,1.159-1.337a36.916,36.916,0,0,1,9.36.012c.463.111.564.107.757.494a20.757,20.757,0,0,0,1.1,2.6c.7-.18-.2-.992.624-1.3a2.413,2.413,0,0,1,1.67-.04c.216.92-.57.79-1.545,1.408l-.23.171c.448.27,1.128.372,1.262,1.533Zm-19.565,4.289c.391,1.186.556.815.011,1.331a3.426,3.426,0,0,0-.3.354.932.932,0,0,0-.018.546c.8,2.721,20.6,2.713,22.653.372.37-.422.3-.3.331-.552.057-.556-.53-.76-.732-1.051.125-1.626,1.239-2.714,1.078-5.645a11.83,11.83,0,0,0-17.65-9.591,12.324,12.324,0,0,0-5.372,14.234Z" transform="translate(-2958.638 -347.412)" fill="#fff" fill-rule="evenodd"/>
      <path id="Path_14863" data-name="Path 14863" d="M3069.523,762.36c-.567-.4-12.843-.36-13.344,0,.094.293,3.106,5.059,3.324,5.4l2.491,4a12.789,12.789,0,0,0,.857,1.321C3063.273,772.584,3069.469,762.54,3069.523,762.36Z" transform="translate(-3046.982 -739.312)" fill="#fff" fill-rule="evenodd"/>
      <path id="Path_14864" data-name="Path 14864" d="M2888.819,630.783c2.851,5.018,19.369,4.416,24.191,3.413,1.815-.377,4.839-1.205,6.386-2.339a2.122,2.122,0,0,0,.921-2.771,6.147,6.147,0,0,0-3.95-2.419l-.184.837c.785.371,1.906.811,2.183,1.751a.947.947,0,0,1-.016.577c-.6,1.475-3.2,2.052-4.671,2.421a44.858,44.858,0,0,1-17.638.176c-1.3-.32-4.188-.966-5.082-2.069a2.17,2.17,0,0,1-.376-.872c.04-1.122,1.493-1.508,2.314-2.013l-.308-.9c-1.108-.155-4.859,2.3-3.77,4.213Z" transform="translate(-2888.623 -611.24)" fill="#fff" fill-rule="evenodd"/>
      <path id="Path_14865" data-name="Path 14865" d="M3064.6,471.2c2.107.189,4.059.419,6.21.457a27.628,27.628,0,0,0,6.217-.485l-.967-2.569c-.42-.86-8.354-.709-9.738-.419-.414.086-.6.093-.761.42a23.566,23.566,0,0,0-.961,2.6Z" transform="translate(-3054.941 -461.312)" fill="#fff" fill-rule="evenodd"/>
      <path id="Path_14866" data-name="Path 14866" d="M3103.549,575.914c.427.334.371.2.953.358.335.091.71.224,1.054.308a12.068,12.068,0,0,0,2.586.138,8,8,0,0,0,1.2-.129l2.2-.5c.4-.238.065-.661-.031-.94-1.4.042-2.718.18-4.162.182l-3.638-.164c-.117.326-.192.291-.168.745Z" transform="translate(-3091.747 -562.649)" fill="#fff" fill-rule="evenodd"/>
      <path id="Path_14867" data-name="Path 14867" d="M3258.07,559.569c.318.729.161.888,1.757.824,2.11-.084,1.869-1.393,1.22-1.641a2.605,2.605,0,0,0-1.182.082A5.244,5.244,0,0,0,3258.07,559.569Z" transform="translate(-3237.791 -547.109)" fill="#fff" fill-rule="evenodd"/>
      <path id="Path_14868" data-name="Path 14868" d="M3038.218,559.462c-.613-.415-2.355-1.055-2.977-.817a.722.722,0,0,0-.445.786c.125.524,1.129.86,1.664.9a4.2,4.2,0,0,0,1.217-.091C3037.989,560.15,3038.09,559.754,3038.218,559.462Z" transform="translate(-3026.758 -547.001)" fill="#fff" fill-rule="evenodd"/>
    </g>
  </g>
</svg>
