<svg xmlns="http://www.w3.org/2000/svg" width="24.949" height="23.115" viewBox="0 0 24.949 23.115">
  <g id="inactivechaticon" transform="translate(0.149 1.482)">
    <path id="Path_15138" data-name="Path 15138" d="M21.261-1.332H3.39A3.392,3.392,0,0,0,0,2.057V12.994a3.393,3.393,0,0,0,3.377,3.389v4.963l7.132-4.963H21.261a3.393,3.393,0,0,0,3.389-3.389V2.057a3.392,3.392,0,0,0-3.389-3.389Zm1.945,14.326a1.947,1.947,0,0,1-1.945,1.945h-11.2L4.822,18.581V14.938H3.389a1.947,1.947,0,0,1-1.945-1.945V2.057A1.947,1.947,0,0,1,3.389.112H21.261a1.947,1.947,0,0,1,1.945,1.945Zm0,0" transform="translate(0 0)" fill="#929da5" stroke="#929da5" stroke-width="0.3"/>
    <path id="Path_15139" data-name="Path 15139" d="M171.293,131.172h11.455v1.444H171.293Zm0,0" transform="translate(-164.695 -127.401)" fill="#929da5" stroke="#929da5" stroke-width="0.3"/>
    <path id="Path_15140" data-name="Path 15140" d="M171.293,211.172h11.455v1.444H171.293Zm0,0" transform="translate(-164.695 -204.32)" fill="#929da5" stroke="#929da5" stroke-width="0.3"/>
    <path id="Path_15141" data-name="Path 15141" d="M171.293,291.172h11.455v1.444H171.293Zm0,0" transform="translate(-164.695 -281.239)" fill="#929da5" stroke="#929da5" stroke-width="0.3"/>
  </g>
</svg>
