<svg xmlns="http://www.w3.org/2000/svg" width="21.387" height="24.317" viewBox="0 0 21.387 24.317">
  <g id="inactivead" transform="translate(-30.849)">
    <g id="Group_10432" data-name="Group 10432" transform="translate(30.849 0.907)">
      <g id="Group_10431" data-name="Group 10431" transform="translate(0)">
        <path id="Path_16119" data-name="Path 16119" d="M50.613,27.78l-8.058-8.058a2.137,2.137,0,0,0-3.282,2.706l-.011.056a14.909,14.909,0,0,1-4.09,7.643l-3.7,3.7a2.135,2.135,0,0,0,0,3.022L33.49,38.86a2.135,2.135,0,0,0,3.022,0l.5-.5,3.525,3.525a2.137,2.137,0,1,0,3.022-3.022l-1.511-1.511.5-.5a2.135,2.135,0,0,0,0-3.022l-.342-.342a14.911,14.911,0,0,1,5.638-2.408l.057-.011a2.139,2.139,0,0,0,2.706-.26h0A2.139,2.139,0,0,0,50.613,27.78ZM35.5,37.853a.712.712,0,0,1-1.007,0l-2.014-2.014a.712.712,0,0,1,0-1.007l3.525-3.525,3.022,3.022Zm7.051,2.014a.712.712,0,0,1-1.007,1.007l-3.525-3.525,1.007-1.007Zm-2.518-4.533c.214-.214.535-.542,1.04-.974l.47.47a.712.712,0,0,1,0,1.007l-.5.5Zm.03-1.984-3.082-3.082a16.31,16.31,0,0,0,3.468-6.6l6.22,6.22A16.309,16.309,0,0,0,40.067,33.35Zm9.538-3.556a.712.712,0,0,1-1.007,0l-8.058-8.058a.712.712,0,0,1,1.007-1.007l8.058,8.058A.713.713,0,0,1,49.606,29.795Z" transform="translate(-30.849 -19.098)" fill="#929da5"/>
      </g>
    </g>
    <g id="Group_10434" data-name="Group 10434" transform="translate(34.289 15.425)">
      <g id="Group_10433" data-name="Group 10433" transform="translate(0)">
        <path id="Path_16120" data-name="Path 16120" d="M105.489,324.971a.712.712,0,0,0-1.007,0l-1.007,1.007a.712.712,0,0,0,1.007,1.007l1.007-1.007A.712.712,0,0,0,105.489,324.971Z" transform="translate(-103.266 -324.762)" fill="#929da5"/>
      </g>
    </g>
    <g id="Group_10436" data-name="Group 10436" transform="translate(45.114)">
      <g id="Group_10435" data-name="Group 10435">
        <path id="Path_16121" data-name="Path 16121" d="M331.906,0a.712.712,0,0,0-.712.712V2.137a.712.712,0,0,0,1.424,0V.712A.712.712,0,0,0,331.906,0Z" transform="translate(-331.194)" fill="#929da5"/>
      </g>
    </g>
    <g id="Group_10438" data-name="Group 10438" transform="translate(49.388 5.698)">
      <g id="Group_10437" data-name="Group 10437">
        <path id="Path_16122" data-name="Path 16122" d="M423.306,119.966h-1.424a.712.712,0,0,0,0,1.424h1.424a.712.712,0,0,0,0-1.424Z" transform="translate(-421.169 -119.966)" fill="#929da5"/>
      </g>
    </g>
    <g id="Group_10440" data-name="Group 10440" transform="translate(47.963 1.424)">
      <g id="Group_10439" data-name="Group 10439" transform="translate(0)">
        <path id="Path_16123" data-name="Path 16123" d="M393.818,30.2a.712.712,0,0,0-1.007,0l-1.424,1.424a.712.712,0,1,0,1.007,1.007l1.424-1.424A.712.712,0,0,0,393.818,30.2Z" transform="translate(-391.178 -29.991)" fill="#929da5"/>
      </g>
    </g>
  </g>
</svg>
