<svg xmlns="http://www.w3.org/2000/svg" width="18.981" height="9.891" viewBox="0 0 18.981 9.891">
  <path id="key_1_" data-name="key (1)" d="M9.891,14.035A4.945,4.945,0,1,1,3.856,9.211V1.089a1.089,1.089,0,0,1,2.178,0v.349H7.5a.741.741,0,0,1,.759.72.741.741,0,0,1-.759.72H7.471a.253.253,0,0,0-.253.253v.4a.253.253,0,0,0,.253.253H7.5a.721.721,0,1,1,0,1.44H6.034V9.211A4.954,4.954,0,0,1,9.891,14.035ZM4.945,11.252a2.784,2.784,0,1,0,2.784,2.784A2.784,2.784,0,0,0,4.945,11.252Z" transform="translate(18.981) rotate(90)" fill="#ddd"/>
</svg>
