<svg id="logout" xmlns="http://www.w3.org/2000/svg" width="20.312" height="20.312" viewBox="0 0 20.312 20.312">
  <g id="Group_9710" data-name="Group 9710">
    <g id="Group_9709" data-name="Group 9709">
      <path id="Path_14324" data-name="Path 14324" d="M.423,15.234h.846a.423.423,0,0,1,.423.423v2.962H11.848V1.693H1.693V4.655a.423.423,0,0,1-.423.423H.423A.423.423,0,0,1,0,4.655V1.693A1.693,1.693,0,0,1,1.693,0H11.848a1.693,1.693,0,0,1,1.693,1.693V18.619a1.693,1.693,0,0,1-1.693,1.693H1.693A1.693,1.693,0,0,1,0,18.619V15.657A.423.423,0,0,1,.423,15.234Z" transform="translate(6.77)" fill="#9e9e9e"/>
      <path id="Path_14325" data-name="Path 14325" d="M128.137,132.76l5.078-4.655a.423.423,0,0,1,.709.312v.846a.423.423,0,0,1-.14.314l-2.942,2.648H142.81a.423.423,0,0,1,.423.423v.846a.423.423,0,0,1-.423.423H130.842l2.942,2.648a.423.423,0,0,1,.14.314v.846a.423.423,0,0,1-.253.387.417.417,0,0,1-.17.036.425.425,0,0,1-.286-.111l-5.078-4.655a.423.423,0,0,1,0-.624Z" transform="translate(-128 -122.916)" fill="#9e9e9e"/>
    </g>
  </g>
</svg>
