<svg xmlns="http://www.w3.org/2000/svg" width="165.894" height="177.007" viewBox="0 0 165.894 177.007">
  <g id="AppLogo" transform="translate(-105 -283.599)">
    <g id="Group_9732" data-name="Group 9732" transform="translate(137 283.599)">
      <path id="Path_14862" data-name="Path 14862" d="M3025.819,383.477c.552,1.2.507,9.225.514,10.615.012,2.293.287,3.868-.454,5.013-.685,1.058-.286,3.4-.476,4.891-1.27.879-6.185.464-8.244.475-2.977.014-3.462.514-4.528-1.109-.719-1.1-.168-.812-.23-2.413-2.621-.024-1.317.131-3.106-.844a22.016,22.016,0,0,0-2.339-1.3c-.627-.22-13.829-.287-14.679.06-2.787,1.14-1.851,2.055-5.3,2.088-.04,1.032.308,1.508-.067,2.15-.209.361-.713,1.157-1.1,1.286l-9.771.081c-3.765-.067-1.521-2.741-2.313-4.96-.341-.953-.635-.249-.681-1.7-.05-1.6-.01-3.335,0-4.95.018-1.771.029-8.333.509-9.378a5.912,5.912,0,0,1,1.278-3.139c.829-.994,1.558-.992,2.676-1.665-2.2-1.785-6.285-1.9-5.565-4.95,1.2-.655,4-.432,5.378.184,2.344,1.047-.353,3.464,1.809,4.007.678-.468,1.924-4.473,2.342-5.533,1.335-3.38,1.175-3.627,3.632-4.188,5.34-1.218,24.014-1.233,29.327.038,1.451.347,1.766.334,2.372,1.548,1.064,2.141,2.605,7.555,3.438,8.137,2.191-.564-.631-3.109,1.956-4.069,1.508-.559,3.968-.815,5.231-.124.678,2.883-1.785,2.475-4.841,4.411l-.721.537c1.4.844,3.535,1.164,3.953,4.8Zm-61.3,13.439c1.225,3.715,1.741,2.554.035,4.169a10.561,10.561,0,0,0-.943,1.109,2.932,2.932,0,0,0-.057,1.711c2.52,8.527,64.546,8.5,70.977,1.166,1.159-1.323.954-.942,1.035-1.728.179-1.742-1.66-2.38-2.292-3.292.394-5.1,3.882-8.5,3.377-17.685-1.519-27.715-32.032-43.564-55.3-30.051-15.082,8.761-22.282,28.052-16.832,44.6Z" transform="translate(-2949.964 -347.412)" fill="#0e6dff" fill-rule="evenodd"/>
      <path id="Path_14863" data-name="Path 14863" d="M3097.988,762.972c-1.777-1.267-40.241-1.128-41.808,0,.3.917,9.731,15.85,10.416,16.911l7.806,12.545a40.089,40.089,0,0,0,2.685,4.138C3078.405,795.006,3097.817,763.536,3097.988,762.972Z" transform="translate(-3027.363 -690.758)" fill="#0e6dff" fill-rule="evenodd"/>
      <path id="Path_14864" data-name="Path 14864" d="M2889.236,639.785c8.933,15.721,60.685,13.834,75.793,10.692,5.688-1.182,15.161-3.777,20.009-7.328,3.016-2.208,4.659-5.481,2.886-8.683-1.75-3.159-8.838-7.762-12.376-7.579l-.576,2.621c2.461,1.163,5.971,2.542,6.84,5.486a2.965,2.965,0,0,1-.052,1.809c-1.89,4.621-10.011,6.43-14.634,7.584-15.458,3.858-41.159,4.021-55.264.552-4.067-1-13.123-3.027-15.922-6.484a6.784,6.784,0,0,1-1.178-2.733c.124-3.515,4.676-4.726,7.251-6.307l-.965-2.831c-3.472-.485-15.224,7.194-11.81,13.2Z" transform="translate(-2888.623 -578.553)" fill="#0e6dff" fill-rule="evenodd"/>
      <path id="Path_14865" data-name="Path 14865" d="M3064.6,478.116c6.6.593,12.717,1.314,19.458,1.431,4.506.079,15.755-.181,19.479-1.519l-3.029-8.049c-1.315-2.7-26.172-2.222-30.512-1.314-1.3.27-1.885.292-2.385,1.316a73.653,73.653,0,0,0-3.01,8.137Z" transform="translate(-3034.335 -447.147)" fill="#0e6dff" fill-rule="evenodd"/>
      <path id="Path_14866" data-name="Path 14866" d="M3103.559,577.544c1.338,1.046,1.161.628,2.984,1.123,1.051.285,2.225.7,3.3.967a37.816,37.816,0,0,0,8.1.433,25.047,25.047,0,0,0,3.768-.4l6.9-1.567c1.249-.745.2-2.072-.1-2.946-4.4.131-8.515.562-13.04.569l-11.4-.513c-.367,1.022-.6.911-.525,2.336Z" transform="translate(-3066.581 -535.983)" fill="#0e6dff" fill-rule="evenodd"/>
      <path id="Path_14867" data-name="Path 14867" d="M3258.07,561.409c1,2.284.5,2.781,5.507,2.581,6.611-.263,5.854-4.363,3.82-5.142-.92-.353-2.767.038-3.7.258A16.422,16.422,0,0,0,3258.07,561.409Z" transform="translate(-3194.531 -522.367)" fill="#0e6dff" fill-rule="evenodd"/>
      <path id="Path_14868" data-name="Path 14868" d="M3045.551,561.315c-1.919-1.3-7.38-3.305-9.327-2.561a2.262,2.262,0,0,0-1.395,2.463c.392,1.642,3.536,2.693,5.213,2.807a13.151,13.151,0,0,0,3.813-.284C3044.834,563.472,3045.151,562.232,3045.551,561.315Z" transform="translate(-3009.643 -522.273)" fill="#0e6dff" fill-rule="evenodd"/>
    </g>
    <path id="Path_14869" data-name="Path 14869" d="M2676.182,1026.3V998.169h-5.312V1026.3c0,9.736,6.764,16.5,16.817,16.5,9.989,0,16.819-6.764,16.819-16.5V998.169h-5.375V1026.3c0,6.513-4.046,11.317-11.444,11.317C2680.353,1037.62,2676.182,1032.816,2676.182,1026.3Zm67.522-.506c0-9.8-7.334-17.133-16.312-17.133-9.23,0-16.375,7.524-16.375,17.133v30.727h5.185v-19.157a14.617,14.617,0,0,0,11.254,5.5c9.041,0,16.249-7.334,16.249-17.07Zm-5.375,0c0,6.828-4.931,12.138-10.937,12.138s-11-5.375-11-12.138,5.057-12.138,11-12.138C2733.4,1013.659,2738.329,1018.971,2738.329,1025.8Zm42.485,0c0-9.611-7.081-17.133-16.312-17.133-9.04,0-16.374,7.334-16.374,17.133,0,9.736,7.271,17.07,16.249,17.07a13.86,13.86,0,0,0,11.253-5.88v5.057h5.185Zm-5.312,0c0,6.7-4.994,12.076-11,12.076-6.07,0-11-5.247-11-12.076s4.932-12.2,11-12.2C2770.445,1013.6,2775.5,1019.032,2775.5,1025.8Zm13.024-3.1v19.345h5.31v-19.472c0-6.26,3.983-9.293,10.242-8.725v-4.995c-8.535-1.013-15.552,3.983-15.552,13.845Zm42.485,2.719a12.373,12.373,0,0,0,5.753-10.874v-5.057h-5.312v5.437c0,4.867-3.288,8.347-8.535,8.347h-7.651V995.01h-5.31v47.037h5.31v-13.782h7.651c5.31,0,8.535,2.212,8.535,8.218v5.563h5.312v-5.184c0-5.563-1.961-9.356-5.753-11.443Z" transform="translate(-2565.87 -595.918)" fill="#0e6dff"/>
  </g>
</svg>
