<svg id="modeicon" xmlns="http://www.w3.org/2000/svg" width="22.79" height="22.79" viewBox="0 0 22.79 22.79">
  <g id="Group_10442" data-name="Group 10442" transform="translate(9.844 6.352)">
    <g id="Group_10441" data-name="Group 10441">
      <path id="Path_16124" data-name="Path 16124" d="M222.717,142.706a1.55,1.55,0,1,0,1.55,1.55A1.552,1.552,0,0,0,222.717,142.706Z" transform="translate(-221.167 -142.706)" fill="#d0d0d0"/>
    </g>
  </g>
  <g id="Group_10444" data-name="Group 10444" transform="translate(8.273 11.744)">
    <g id="Group_10443" data-name="Group 10443">
      <path id="Path_16125" data-name="Path 16125" d="M190.325,263.847h-2.689a1.78,1.78,0,0,0-1.778,1.778v2.515H192.1v-2.515A1.78,1.78,0,0,0,190.325,263.847Z" transform="translate(-185.859 -263.847)" fill="#d0d0d0"/>
    </g>
  </g>
  <g id="Group_10446" data-name="Group 10446">
    <g id="Group_10445" data-name="Group 10445">
      <path id="Path_16126" data-name="Path 16126" d="M0,0V22.79H22.79V0ZM11.395,5.017a2.885,2.885,0,0,1,1.424,5.394,3.116,3.116,0,0,1,3.033,3.111v3.851H6.937V13.522a3.116,3.116,0,0,1,3.033-3.111,2.885,2.885,0,0,1,1.424-5.394ZM1.567,1.567H9.25V2.9H2.9V9.134H1.567V1.567ZM9.25,21.223H1.567V13.655H2.9v6.232H9.25Zm11.973,0H13.539V19.887h6.348V13.655h1.335Zm0-12.089H19.887V2.9H13.539V1.567h7.683Z" fill="#d0d0d0"/>
    </g>
  </g>
</svg>
