<svg xmlns="http://www.w3.org/2000/svg" width="37" height="37" viewBox="0 0 37 37">
  <g id="notificationbellicon" transform="translate(-3703 -150)">
    <g id="Path_16113" data-name="Path 16113" transform="translate(3703 150)" fill="#fff">
      <path d="M 18.5 36.5 C 13.69202041625977 36.5 9.171830177307129 34.62767028808594 5.772079944610596 31.22792053222656 C 2.372329950332642 27.82817077636719 0.5 23.30797958374023 0.5 18.5 C 0.5 13.69202041625977 2.372329950332642 9.171830177307129 5.772079944610596 5.772079944610596 C 9.171830177307129 2.372329950332642 13.69202041625977 0.5 18.5 0.5 C 23.30797958374023 0.5 27.82817077636719 2.372329950332642 31.22792053222656 5.772079944610596 C 34.62767028808594 9.171830177307129 36.5 13.69202041625977 36.5 18.5 C 36.5 23.30797958374023 34.62767028808594 27.82817077636719 31.22792053222656 31.22792053222656 C 27.82817077636719 34.62767028808594 23.30797958374023 36.5 18.5 36.5 Z" stroke="none"/>
      <path d="M 18.5 1 C 13.82558059692383 1 9.430940628051758 2.820320129394531 6.125629425048828 6.125629425048828 C 2.820320129394531 9.430940628051758 1 13.82558059692383 1 18.5 C 1 23.17441940307617 2.820320129394531 27.56906127929688 6.125629425048828 30.87437057495117 C 9.430940628051758 34.17967987060547 13.82558059692383 36 18.5 36 C 23.17441940307617 36 27.56906127929688 34.17967987060547 30.87437057495117 30.87437057495117 C 34.17967987060547 27.56906127929688 36 23.17441940307617 36 18.5 C 36 13.82558059692383 34.17967987060547 9.430940628051758 30.87437057495117 6.125629425048828 C 27.56906127929688 2.820320129394531 23.17441940307617 1 18.5 1 M 18.5 0 C 28.71726989746094 0 37 8.282730102539063 37 18.5 C 37 28.71726989746094 28.71726989746094 37 18.5 37 C 8.282730102539063 37 0 28.71726989746094 0 18.5 C 0 8.282730102539063 8.282730102539063 0 18.5 0 Z" stroke="none" fill="#0e6dff"/>
    </g>
    <g id="bell" transform="translate(3671.325 159)">
      <g id="Group_2729" data-name="Group 2729" transform="translate(42.675)">
        <g id="Group_2728" data-name="Group 2728">
          <path id="Path_3300" data-name="Path 3300" d="M57.653,15.214l-1.29-2.151a6.389,6.389,0,0,1-.911-3.287V7.891a5.268,5.268,0,0,0-3.758-5.039V1.5a1.5,1.5,0,0,0-3.006,0V2.852a5.268,5.268,0,0,0-3.758,5.039V9.776a6.393,6.393,0,0,1-.91,3.287l-1.29,2.151a.376.376,0,0,0,.322.57H57.33a.376.376,0,0,0,.322-.569Z" transform="translate(-42.675 0)" fill="#0e6dff"/>
        </g>
      </g>
      <g id="Group_2731" data-name="Group 2731" transform="translate(47.824 16.534)">
        <g id="Group_2730" data-name="Group 2730">
          <path id="Path_3301" data-name="Path 3301" d="M188.815,469.333a2.615,2.615,0,0,0,4.733,0Z" transform="translate(-188.815 -469.333)" fill="#0e6dff"/>
        </g>
      </g>
    </g>
  </g>
</svg>
