<svg xmlns="http://www.w3.org/2000/svg" width="16.404" height="20.582" viewBox="0 0 16.404 20.582">
  <path id="notification" d="M69,15.981a3.12,3.12,0,0,1-.948-1.291,14.94,14.94,0,0,1-.988-5.9c0-.008,0-.015,0-.023A5.7,5.7,0,0,0,63.705,3.6V2.237A2.238,2.238,0,0,0,61.472,0h-.185a2.238,2.238,0,0,0-2.233,2.237V3.6A5.7,5.7,0,0,0,55.7,8.787a14.939,14.939,0,0,1-.988,5.9,3.12,3.12,0,0,1-.948,1.291.572.572,0,0,0-.314.651.6.6,0,0,0,.59.46H58.35a3.029,3.029,0,0,0,6.058,0H68.72a.6.6,0,0,0,.59-.46A.572.572,0,0,0,69,15.981ZM60.23,2.237a1.059,1.059,0,0,1,1.057-1.058h.185a1.059,1.059,0,0,1,1.057,1.058v.977a5.7,5.7,0,0,0-2.3,0V2.237ZM61.379,18.9a1.857,1.857,0,0,1-1.852-1.812h3.7A1.856,1.856,0,0,1,61.379,18.9Zm2.369-2.99H55.379a6.167,6.167,0,0,0,.308-.541,14.9,14.9,0,0,0,1.188-6.585,4.5,4.5,0,1,1,9.007,0c0,.007,0,.014,0,.022a14.865,14.865,0,0,0,1.188,6.561,6.166,6.166,0,0,0,.308.541Z" transform="translate(-53.177 0.25)" fill="#0e6dff" stroke="#0e6dff" stroke-width="0.5"/>
</svg>
