<svg xmlns="http://www.w3.org/2000/svg" width="108" height="101" viewBox="0 0 108 101">
  <path id="okicon" d="M0,50.5C0,22.61,22.82,0,50.969,0A51.044,51.044,0,0,1,86.124,13.934a1.356,1.356,0,0,1,.047,1.93,1.387,1.387,0,0,1-1.948.047A48.275,48.275,0,0,0,50.969,2.73C24.341,2.73,2.755,24.117,2.755,50.5S24.341,98.27,50.969,98.27,99.184,76.883,99.184,50.5a47.282,47.282,0,0,0-2.894-16.341,1.361,1.361,0,0,1,.823-1.75,1.381,1.381,0,0,1,1.765.816A49.994,49.994,0,0,1,101.939,50.5c0,27.89-22.82,50.5-50.969,50.5S0,78.39,0,50.5Zm29.056-3.949a1.356,1.356,0,0,1,0-1.93,1.387,1.387,0,0,1,1.948,0L49.868,63.31,105.648,8.043a1.386,1.386,0,0,1,1.948,0,1.356,1.356,0,0,1,0,1.931l-57.729,57.2Z" fill="#0e6dff"/>
</svg>
