<svg xmlns="http://www.w3.org/2000/svg" width="19.937" height="23.897" viewBox="0 0 19.937 23.897">
  <g id="porfileicon" transform="translate(0 0)">
    <path id="Path_12" data-name="Path 12" d="M92.787,11.511a5.569,5.569,0,0,0,4.07-1.686,5.569,5.569,0,0,0,1.686-4.07,5.57,5.57,0,0,0-1.686-4.07,5.754,5.754,0,0,0-8.139,0,5.569,5.569,0,0,0-1.686,4.069,5.569,5.569,0,0,0,1.686,4.07,5.57,5.57,0,0,0,4.069,1.686Zm0,0" transform="translate(-82.97 0)" fill="#d0d0d0"/>
    <path id="Path_13" data-name="Path 13" d="M19.889,254.149a14.216,14.216,0,0,0-.194-1.51,11.9,11.9,0,0,0-.371-1.518A7.5,7.5,0,0,0,18.7,249.7a5.339,5.339,0,0,0-.941-1.226,4.149,4.149,0,0,0-1.352-.849,4.672,4.672,0,0,0-1.726-.312,1.752,1.752,0,0,0-.935.4c-.28.183-.608.394-.974.628a5.586,5.586,0,0,1-1.261.556,4.9,4.9,0,0,1-3.084,0,5.575,5.575,0,0,1-1.26-.555c-.363-.232-.691-.443-.975-.629a1.75,1.75,0,0,0-.935-.4,4.666,4.666,0,0,0-1.726.313,4.146,4.146,0,0,0-1.352.849,5.344,5.344,0,0,0-.941,1.226,7.513,7.513,0,0,0-.624,1.416,11.927,11.927,0,0,0-.371,1.518,14.167,14.167,0,0,0-.194,1.511c-.032.457-.048.932-.048,1.411a3.968,3.968,0,0,0,1.179,3,4.243,4.243,0,0,0,3.037,1.108H15.722a4.242,4.242,0,0,0,3.037-1.108,3.966,3.966,0,0,0,1.179-3c0-.482-.016-.957-.048-1.412Zm0,0" transform="translate(0 -235.773)" fill="#d0d0d0"/>
  </g>
</svg>
