<svg xmlns="http://www.w3.org/2000/svg" width="34.226" height="34.226" viewBox="0 0 34.226 34.226">
  <g id="provider" transform="translate(-1 -1)">
    <path id="Path_16110" data-name="Path 16110" d="M31.36,18.669a1.234,1.234,0,0,1-2.208,0l-.058-.116-.988.494.058.116a2.338,2.338,0,0,0,4.183,0l.058-.116-.988-.494Z" transform="translate(-12.143 -7.863)" fill="#0e6dff"/>
    <path id="Path_16111" data-name="Path 16111" d="M33.659,23.138a4.413,4.413,0,0,0-2.951-7.784,6.035,6.035,0,0,0-5.97-4.969c-.026,0-.053,0-.079,0a2.123,2.123,0,0,0-.326-1.823l.006-.012a3.806,3.806,0,0,0,.4-1.692,3.764,3.764,0,0,0-2.092-3.384l-.123-.061A2.476,2.476,0,0,0,20.052,1h-3.6A3.869,3.869,0,0,0,12.6,4.628l-.108.108a3.426,3.426,0,0,0-.828,3.505l.151.452c-.019.032-.036.065-.054.1a6.018,6.018,0,0,0-6.876,5.58,4.967,4.967,0,0,0,1.083,9.814H16.457V27.9l1.509.484a8.289,8.289,0,0,0,.507,1.23l-.724,1.407,2.911,2.911,1.407-.724a8.279,8.279,0,0,0,1.23.507l.485,1.51H27.9l.484-1.509a8.255,8.255,0,0,0,1.23-.507l1.407.724,2.911-2.911-.724-1.407a8.289,8.289,0,0,0,.507-1.23l1.51-.485V23.782L33.717,23.3c-.018-.054-.04-.107-.058-.161ZM29.682,16l.053.583.579-.087a3.252,3.252,0,0,1,.5-.042,3.312,3.312,0,1,1,0,6.624H27.5V20.828a5.736,5.736,0,0,0-1.691-4.083,5.81,5.81,0,0,0-3.266-1.633l-1.783-.254-.215-.789A4.437,4.437,0,0,0,22.2,12.041h.325a2.187,2.187,0,0,0,1.35-.474,5.013,5.013,0,0,1,.858-.078A4.939,4.939,0,0,1,29.682,16Zm1.127,9.839a4.968,4.968,0,1,1-9.648-1.656h1.19a3.864,3.864,0,1,0,6.98,0h1.19a4.941,4.941,0,0,1,.288,1.656ZM12.041,19.769v3.312H9.832V20.828a4.637,4.637,0,0,1,1.368-3.3,4.7,4.7,0,0,1,2.641-1.321l.684-.1,1.058,4.763,2.529-2.529,2.529,2.529L21.7,16.107l.684.1a4.7,4.7,0,0,1,2.641,1.321,4.637,4.637,0,0,1,1.368,3.3v2.253H24.185V19.769h-1.1v3.312H13.145V19.769Zm8.476-3.831.088.013L20,18.668l-1.107-1.107Zm-2.4-2.242A3.316,3.316,0,0,1,14.8,10.385V7.755A1.436,1.436,0,0,1,15.383,6.6,11.068,11.068,0,0,0,20.03,7.624h.843a.553.553,0,0,1,.552.552v2.208A3.316,3.316,0,0,1,18.113,13.7Zm0,1.1a4.391,4.391,0,0,0,1.421-.239l.171.627L18.113,16.78l-1.592-1.592.171-.627A4.391,4.391,0,0,0,18.113,14.8Zm-2.4,1.138,1.623,1.622-1.107,1.107-.6-2.717Zm12.326,8.247a2.76,2.76,0,1,1-4.388,0Zm-5.506-13.8V8.728a1.1,1.1,0,1,1,0,2.208h-.038A4.442,4.442,0,0,0,22.529,10.385ZM13.272,5.517l.425-.425V4.864a2.763,2.763,0,0,1,2.76-2.76h3.6a1.373,1.373,0,0,1,.435,2.675l-.34.113L20.5,5.94l.341-.113a2.47,2.47,0,0,0,1.449-1.284,2.66,2.66,0,0,1,1.164,3.288,2.191,2.191,0,0,0-.919-.206h-.1a1.654,1.654,0,0,0-1.555-1.1H20.03A9.949,9.949,0,0,1,15.6,5.474l-.247-.123-.247.124a2.53,2.53,0,0,0-1.4,2.15H13.7a2.18,2.18,0,0,0-.99.246,2.311,2.311,0,0,1,.566-2.353ZM13.7,8.728v1.656a4.442,4.442,0,0,0,.038.552H13.7a1.1,1.1,0,0,1,0-2.208ZM2.1,19.217a3.865,3.865,0,0,1,5.815-3.336l.559-.953A4.97,4.97,0,0,0,6,14.25a4.974,4.974,0,0,1,4.936-4.418,4.915,4.915,0,0,1,.555.033,2.208,2.208,0,0,0,2.2,2.176h.325a4.437,4.437,0,0,0,1.661,2.028l-.215.789-1.783.254a5.81,5.81,0,0,0-3.266,1.633,5.736,5.736,0,0,0-1.691,4.083v2.253H5.968A3.869,3.869,0,0,1,2.1,19.217Zm32.018,7.878-1.3.417-.081.285a7.182,7.182,0,0,1-.636,1.543l-.145.258.624,1.212L30.81,32.583,29.6,31.96l-.258.145a7.1,7.1,0,0,1-1.544.636l-.285.081-.416,1.3H24.588l-.416-1.3-.285-.081a7.127,7.127,0,0,1-1.544-.636l-.258-.145-1.212.623L19.1,30.81l.624-1.212-.145-.258a7.181,7.181,0,0,1-.636-1.543l-.081-.285-1.3-.416v-2.91H20A6.071,6.071,0,1,0,31.656,24.1a4.386,4.386,0,0,0,1.04-.346c.013.044.032.086.044.13l.081.285,1.3.416Z" fill="#0e6dff"/>
  </g>
</svg>
