<svg xmlns="http://www.w3.org/2000/svg" width="33.527" height="33.526" viewBox="0 0 33.527 33.526">
  <g id="seeker" transform="translate(0 0)">
    <path id="Path_16107" data-name="Path 16107" d="M184.431,62.473a.656.656,0,0,0,.115.109,9.278,9.278,0,0,0,12.609.059.659.659,0,0,0,.225-.214,9.3,9.3,0,1,0-12.949.045Zm1.205-.669a3.682,3.682,0,0,1,3.624-2.978h.968V61.3a.655.655,0,0,0,1.31,0V58.826h.967a3.679,3.679,0,0,1,3.624,2.978,7.97,7.97,0,0,1-10.492,0Zm3.27-6.75h.632a3.536,3.536,0,0,0,2.323-.866l1,.586v.766a1.976,1.976,0,1,1-3.952,0Zm3.952-1.8-.773-.454a.654.654,0,0,0-.834.144,2.23,2.23,0,0,1-1.714.8h-.632v-.626a1.976,1.976,0,0,1,3.952,0ZM190.882,47.8a7.982,7.982,0,0,1,6.288,12.9,4.981,4.981,0,0,0-3.733-3.1,3.269,3.269,0,0,0,.731-2.062V53.118a3.286,3.286,0,1,0-6.571,0V55.54a3.27,3.27,0,0,0,.731,2.062,4.987,4.987,0,0,0-3.732,3.1,7.982,7.982,0,0,1,6.288-12.9Zm0,0" transform="translate(-169.696 -43.448)" fill="#0e6dff"/>
    <path id="Path_16108" data-name="Path 16108" d="M21.089,24.874A12.438,12.438,0,0,0,22.408.069a12.484,12.484,0,0,0-7.941,1.837.655.655,0,1,0,.7,1.108A11.129,11.129,0,0,1,28.958,20.305,11.129,11.129,0,0,1,11.666,6.513a.655.655,0,1,0-1.108-.7,12.434,12.434,0,0,0-.3,12.732L7.59,21.214.978,27.827A3.338,3.338,0,0,0,5.7,32.548l6.612-6.612h0l2.662-2.662a12.368,12.368,0,0,0,6.115,1.6ZM4.773,31.622A2.029,2.029,0,0,1,1.9,28.753L8.053,22.6l2.869,2.869Zm7.075-7.075L8.979,21.677l2-2a12.39,12.39,0,0,0,1.316,1.553,12.622,12.622,0,0,0,1.551,1.318Zm0,0" transform="translate(0 0)" fill="#0e6dff"/>
    <path id="Path_16109" data-name="Path 16109" d="M185.478,54a.655.655,0,0,0,.463-1.118h0A.655.655,0,1,0,185.478,54Zm0,0" transform="translate(-172.721 -49.244)" fill="#0e6dff"/>
  </g>
</svg>
