<svg xmlns="http://www.w3.org/2000/svg" width="24.808" height="12.927" viewBox="0 0 24.808 12.927">
  <path id="settingkey" d="M12.927,18.345A6.464,6.464,0,1,1,5.04,12.039V1.423a1.423,1.423,0,0,1,2.847,0V1.88H9.8a.968.968,0,0,1,.992.941.968.968,0,0,1-.992.941H9.764a.331.331,0,0,0-.331.331v.526a.331.331,0,0,0,.331.331H9.8a.942.942,0,1,1,0,1.882H7.887v5.208A6.475,6.475,0,0,1,12.927,18.345ZM6.464,14.706A3.638,3.638,0,1,0,10.1,18.345,3.638,3.638,0,0,0,6.464,14.706Z" transform="translate(24.808) rotate(90)" fill="#d0d0d0"/>
</svg>
