<svg xmlns="http://www.w3.org/2000/svg" width="14.097" height="16.897" viewBox="0 0 14.097 16.897">
  <g id="user_2_" data-name="user (2)" opacity="0.57">
    <path id="Path_12" data-name="Path 12" d="M91.1,8.139a3.938,3.938,0,0,0,2.878-1.192A3.938,3.938,0,0,0,95.171,4.07a3.938,3.938,0,0,0-1.192-2.877,4.069,4.069,0,0,0-5.755,0A3.938,3.938,0,0,0,87.032,4.07a3.938,3.938,0,0,0,1.192,2.878A3.939,3.939,0,0,0,91.1,8.139Zm0,0" transform="translate(-84.16 0)" fill="#c4c4c4"/>
    <path id="Path_13" data-name="Path 13" d="M14.063,252.147a10.052,10.052,0,0,0-.137-1.068,8.415,8.415,0,0,0-.263-1.073,5.3,5.3,0,0,0-.441-1,3.775,3.775,0,0,0-.665-.867,2.934,2.934,0,0,0-.956-.6,3.3,3.3,0,0,0-1.22-.221,1.239,1.239,0,0,0-.661.281c-.2.129-.43.279-.689.444a3.95,3.95,0,0,1-.892.393,3.462,3.462,0,0,1-2.181,0,3.942,3.942,0,0,1-.891-.393c-.256-.164-.488-.313-.69-.445a1.237,1.237,0,0,0-.661-.281,3.3,3.3,0,0,0-1.22.221,2.931,2.931,0,0,0-.956.6,3.778,3.778,0,0,0-.665.867,5.311,5.311,0,0,0-.441,1,8.432,8.432,0,0,0-.262,1.073,10.018,10.018,0,0,0-.137,1.068c-.022.323-.034.659-.034,1a2.806,2.806,0,0,0,.833,2.123,3,3,0,0,0,2.147.783h8.136a3,3,0,0,0,2.147-.783,2.8,2.8,0,0,0,.833-2.123c0-.341-.012-.676-.034-1Zm0,0" transform="translate(0 -239.155)" fill="#c4c4c4"/>
  </g>
</svg>
